G04 ================== begin FILE IDENTIFICATION RECORD ==================*
G04 Layout Name:  C:/temp/MultiFx/allegro/MULTIFX.brd*
G04 Film Name:    ASSEMBLY_TOP*
G04 File Format:  Gerber RS274X*
G04 File Origin:  Cadence Allegro 17.2-S078*
G04 Origin Date:  Thu Feb 24 11:19:01 2022*
G04 *
G04 Layer:  REF DES/ASSEMBLY_TOP*
G04 Layer:  PACKAGE GEOMETRY/ASSEMBLY_TOP*
G04 Layer:  BOARD GEOMETRY/DESIGN_OUTLINE*
G04 *
G04 Offset:    (0.0000 0.0000)*
G04 Mirror:    No*
G04 Mode:      Positive*
G04 Rotation:  0*
G04 FullContactRelief:  No*
G04 UndefLineWidth:     0.1000*
G04 ================== end FILE IDENTIFICATION RECORD ====================*
%FSLAX25Y25*MOMM*%
%IR0*IPPOS*OFA0.00000B0.00000*MIA0B0*SFA1.00000B1.00000*%
%ADD10C,.1*%
G75*
%LPD*%
G75*
G54D10*
G01X16540000Y24350000D02*
Y17450000D01*
X27090000D01*
Y24350000D01*
X16540000D01*
G01Y18750000D02*
X18060000D01*
Y19650000D01*
X16540000D01*
Y18750000D01*
G01X17248680Y19307870D02*
X17252620Y19313710D01*
X17255240Y19320530D01*
Y19328320D01*
X17251300Y19337080D01*
X17244740Y19343890D01*
X17236870Y19348760D01*
X17223740Y19352660D01*
X17211930Y19353630D01*
X17200120Y19351680D01*
X17192250Y19348760D01*
X17184370Y19342920D01*
X17179120Y19336110D01*
X17176500Y19329290D01*
Y19322470D01*
X17179120Y19315660D01*
X17183060Y19309820D01*
X17188310Y19304950D01*
G01X17176500Y19250550D02*
X17177810Y19258340D01*
X17183060Y19265150D01*
X17190930Y19271000D01*
X17200120Y19274890D01*
X17210620Y19276840D01*
X17221120D01*
X17231620Y19274890D01*
X17240810Y19271000D01*
X17248680Y19265150D01*
X17253930Y19258340D01*
X17255240Y19250550D01*
X17253930Y19242760D01*
X17248680Y19235950D01*
X17240810Y19230100D01*
X17231620Y19226210D01*
X17221120Y19224260D01*
X17210620D01*
X17200120Y19226210D01*
X17190930Y19230100D01*
X17183060Y19235950D01*
X17177810Y19242760D01*
X17176500Y19250550D01*
G01Y19194200D02*
X17255240D01*
X17176500Y19149420D01*
X17255240D01*
G01X17176500Y19115460D02*
X17255240D01*
X17176500Y19070680D01*
X17255240D01*
G01X17176500Y19014330D02*
X17255240D01*
X17239490Y19026010D01*
G01X17176500D02*
Y19002650D01*
G01X18975500Y18036240D02*
X18968940Y18028450D01*
X18965000Y18019680D01*
Y18011900D01*
X18968940Y18004110D01*
X18975500Y17998260D01*
X18984690Y17995340D01*
X18993870Y17997290D01*
X19001740Y18002160D01*
X19007000Y18010920D01*
X19009620Y18022610D01*
X19014870Y18029420D01*
X19024050Y18032340D01*
X19033240Y18030390D01*
X19039800Y18025530D01*
X19043740Y18018710D01*
Y18011900D01*
X19041120Y18005080D01*
X19034550Y17999240D01*
G01X19043740Y17966260D02*
X18965000Y17952630D01*
X19043740Y17937050D01*
X18965000Y17921470D01*
X19043740Y17907840D01*
G01X18965000Y17858310D02*
X19043740D01*
X19027990Y17869990D01*
G01X18965000D02*
Y17846630D01*
G01X18355000Y17607000D02*
X19625000D01*
Y18293000D01*
X18355000D01*
Y17607000D01*
G01X19106240Y18964500D02*
X19098450Y18971060D01*
X19089680Y18975000D01*
X19081900D01*
X19074110Y18971060D01*
X19068260Y18964500D01*
X19065340Y18955310D01*
X19067290Y18946130D01*
X19072160Y18938260D01*
X19080920Y18933000D01*
X19092610Y18930380D01*
X19099420Y18925130D01*
X19102340Y18915950D01*
X19100390Y18906760D01*
X19095530Y18900200D01*
X19088710Y18896260D01*
X19081900D01*
X19075080Y18898880D01*
X19069240Y18905450D01*
G01X19036260Y18896260D02*
X19022630Y18975000D01*
X19007050Y18896260D01*
X18991470Y18975000D01*
X18977840Y18896260D01*
G01X18916630Y18975000D02*
Y18896260D01*
X18952650Y18952690D01*
X18903970D01*
G01X18690000Y19250000D02*
Y18650000D01*
X19290000D01*
Y19250000D01*
X18690000D01*
G01Y20250000D02*
Y19650000D01*
X19290000D01*
Y20250000D01*
X18690000D01*
G01X19106240Y19964500D02*
X19098450Y19971060D01*
X19089680Y19975000D01*
X19081900D01*
X19074110Y19971060D01*
X19068260Y19964500D01*
X19065340Y19955310D01*
X19067290Y19946130D01*
X19072160Y19938260D01*
X19080920Y19933000D01*
X19092610Y19930380D01*
X19099420Y19925130D01*
X19102340Y19915950D01*
X19100390Y19906760D01*
X19095530Y19900200D01*
X19088710Y19896260D01*
X19081900D01*
X19075080Y19898880D01*
X19069240Y19905450D01*
G01X19036260Y19896260D02*
X19022630Y19975000D01*
X19007050Y19896260D01*
X18991470Y19975000D01*
X18977840Y19896260D01*
G01X18949730Y19959250D02*
X18943890Y19968440D01*
X18936100Y19973690D01*
X18927340Y19975000D01*
X18919550Y19973690D01*
X18911760Y19967130D01*
X18906890Y19959250D01*
X18905920Y19951380D01*
X18907860Y19942190D01*
X18914680Y19935630D01*
X18921490Y19933000D01*
X18930260D01*
G01X18921490D02*
X18915650Y19929070D01*
X18910780Y19922510D01*
X18908840Y19914630D01*
X18910780Y19906760D01*
X18915650Y19900200D01*
X18924420Y19896260D01*
X18933180Y19897570D01*
X18941940Y19902820D01*
G01X19106240Y20964500D02*
X19098450Y20971060D01*
X19089680Y20975000D01*
X19081900D01*
X19074110Y20971060D01*
X19068260Y20964500D01*
X19065340Y20955310D01*
X19067290Y20946130D01*
X19072160Y20938260D01*
X19080920Y20933000D01*
X19092610Y20930380D01*
X19099420Y20925130D01*
X19102340Y20915950D01*
X19100390Y20906760D01*
X19095530Y20900200D01*
X19088710Y20896260D01*
X19081900D01*
X19075080Y20898880D01*
X19069240Y20905450D01*
G01X19036260Y20896260D02*
X19022630Y20975000D01*
X19007050Y20896260D01*
X18991470Y20975000D01*
X18977840Y20896260D01*
G01X18946810Y20909380D02*
X18940970Y20901510D01*
X18934150Y20897570D01*
X18926360Y20896260D01*
X18916630Y20898880D01*
X18909810Y20905450D01*
X18907860Y20913320D01*
X18908840Y20921200D01*
X18912730Y20927760D01*
X18932200Y20940880D01*
X18940970Y20950070D01*
X18946810Y20963190D01*
X18948760Y20975000D01*
X18907860D01*
G01X18690000Y21250000D02*
Y20650000D01*
X19290000D01*
Y21250000D01*
X18690000D01*
G01X19015000Y22071770D02*
X18951500D01*
Y22088030D01*
X18954680Y22093450D01*
X18962080Y22097510D01*
X18970550Y22098870D01*
X18979020Y22097510D01*
X18985370Y22094130D01*
X18988540Y22088030D01*
Y22071770D01*
G01X19015000Y22141200D02*
X19013940Y22135780D01*
X19009710Y22131040D01*
X19003360Y22126980D01*
X18995950Y22124270D01*
X18987480Y22122910D01*
X18979020D01*
X18970550Y22124270D01*
X18963140Y22126980D01*
X18956790Y22131040D01*
X18952560Y22135780D01*
X18951500Y22141200D01*
X18952560Y22146620D01*
X18956790Y22151360D01*
X18963140Y22155420D01*
X18970550Y22158130D01*
X18979020Y22159490D01*
X18987480D01*
X18995950Y22158130D01*
X19003360Y22155420D01*
X19009710Y22151360D01*
X19013940Y22146620D01*
X19015000Y22141200D01*
G01X18951500Y22197080D02*
X19015000D01*
G01X18951500Y22181500D02*
Y22212660D01*
G01X18962080Y22240090D02*
X18955730Y22244150D01*
X18952560Y22248900D01*
X18951500Y22254310D01*
X18953620Y22261090D01*
X18958910Y22265830D01*
X18965260Y22267180D01*
X18971610Y22266510D01*
X18976900Y22263800D01*
X18987480Y22250250D01*
X18994890Y22244150D01*
X19005480Y22240090D01*
X19015000Y22238740D01*
Y22267180D01*
G01X19615000Y22720000D02*
X18365000D01*
Y21580000D01*
X19615000D01*
Y22720000D01*
G01X19015000Y23571770D02*
X18951500D01*
Y23588030D01*
X18954680Y23593450D01*
X18962080Y23597510D01*
X18970550Y23598870D01*
X18979020Y23597510D01*
X18985370Y23594130D01*
X18988540Y23588030D01*
Y23571770D01*
G01X19015000Y23641200D02*
X19013940Y23635780D01*
X19009710Y23631040D01*
X19003360Y23626980D01*
X18995950Y23624270D01*
X18987480Y23622910D01*
X18979020D01*
X18970550Y23624270D01*
X18963140Y23626980D01*
X18956790Y23631040D01*
X18952560Y23635780D01*
X18951500Y23641200D01*
X18952560Y23646620D01*
X18956790Y23651360D01*
X18963140Y23655420D01*
X18970550Y23658130D01*
X18979020Y23659490D01*
X18987480D01*
X18995950Y23658130D01*
X19003360Y23655420D01*
X19009710Y23651360D01*
X19013940Y23646620D01*
X19015000Y23641200D01*
G01X18951500Y23697080D02*
X19015000D01*
G01X18951500Y23681500D02*
Y23712660D01*
G01X19015000Y23752960D02*
X18951500D01*
X18964200Y23744830D01*
G01X19015000D02*
Y23761090D01*
G01X19615000Y24220000D02*
X18365000D01*
Y23080000D01*
X19615000D01*
Y24220000D01*
G01X20510900Y18796370D02*
X20450900D01*
Y18813030D01*
X20453900Y18818370D01*
X20457900Y18821700D01*
X20465900Y18823030D01*
X20473900Y18821700D01*
X20478900Y18817700D01*
X20481900Y18813030D01*
Y18796370D01*
G01Y18813030D02*
X20510900Y18823030D01*
G01Y18870020D02*
X20450900D01*
X20462900Y18862020D01*
G01X20510900D02*
Y18878020D01*
G01X20525000Y18917500D02*
X20445000D01*
Y18762500D01*
X20525000D01*
Y18917500D01*
G01X20501000Y19141670D02*
X20471000D01*
Y19128330D01*
G01Y19107090D02*
X20501000D01*
Y19100430D01*
X20499500Y19097760D01*
X20497500Y19095760D01*
X20494500Y19094090D01*
X20491000Y19092760D01*
X20486000Y19092430D01*
X20481000Y19092760D01*
X20477500Y19094090D01*
X20474500Y19095760D01*
X20472500Y19097760D01*
X20471000Y19100430D01*
Y19107090D01*
G01Y19064520D02*
X20501000D01*
X20495000Y19068520D01*
G01X20471000D02*
Y19060520D01*
G01X20460000Y19050000D02*
X20510000D01*
Y19150000D01*
X20460000D01*
Y19050000D01*
G01X21328000Y22530000D02*
Y17450000D01*
X21582000D01*
Y22530000D01*
X21328000D01*
G01X21522760Y20000250D02*
X21517890Y20008130D01*
X21512050Y20013380D01*
X21505240Y20016000D01*
X21497450Y20013380D01*
X21491610Y20008130D01*
X21485760Y20000250D01*
X21483820Y19989750D01*
Y19937260D01*
G01X21424550Y20016000D02*
Y19937260D01*
X21436230Y19953010D01*
G01Y20016000D02*
X21412870D01*
G01X23071000Y17450000D02*
Y22530000D01*
X22817000D01*
Y17450000D01*
X23071000D01*
G01X24610000Y20850000D02*
X23570000D01*
Y17450000D01*
X24610000D01*
Y20850000D01*
G01X22876240Y19979750D02*
X22881110Y19971870D01*
X22886950Y19966620D01*
X22893760Y19964000D01*
X22901550Y19966620D01*
X22907390Y19971870D01*
X22913240Y19979750D01*
X22915180Y19990250D01*
Y20042740D01*
G01X22955950Y20029620D02*
X22961790Y20037490D01*
X22968610Y20041430D01*
X22976400Y20042740D01*
X22986130Y20040120D01*
X22992950Y20033550D01*
X22994900Y20025680D01*
X22993920Y20017800D01*
X22990030Y20011240D01*
X22970560Y19998120D01*
X22961790Y19988930D01*
X22955950Y19975810D01*
X22954000Y19964000D01*
X22994900D01*
G01X23570000Y20950000D02*
X24610000D01*
Y24350000D01*
X23570000D01*
Y20950000D01*
G01X24057820Y19460630D02*
X24053880Y19454790D01*
X24051260Y19447970D01*
Y19440180D01*
X24055200Y19431420D01*
X24061760Y19424610D01*
X24069630Y19419740D01*
X24082760Y19415840D01*
X24094570Y19414870D01*
X24106380Y19416820D01*
X24114250Y19419740D01*
X24122130Y19425580D01*
X24127380Y19432390D01*
X24130000Y19439210D01*
Y19446030D01*
X24127380Y19452840D01*
X24123440Y19458680D01*
X24118190Y19463550D01*
G01X24130000Y19517950D02*
X24128690Y19510160D01*
X24123440Y19503350D01*
X24115570Y19497500D01*
X24106380Y19493610D01*
X24095880Y19491660D01*
X24085380D01*
X24074880Y19493610D01*
X24065690Y19497500D01*
X24057820Y19503350D01*
X24052570Y19510160D01*
X24051260Y19517950D01*
X24052570Y19525740D01*
X24057820Y19532550D01*
X24065690Y19538400D01*
X24074880Y19542290D01*
X24085380Y19544240D01*
X24095880D01*
X24106380Y19542290D01*
X24115570Y19538400D01*
X24123440Y19532550D01*
X24128690Y19525740D01*
X24130000Y19517950D01*
G01Y19574300D02*
X24051260D01*
X24130000Y19619080D01*
X24051260D01*
G01X24130000Y19653040D02*
X24051260D01*
X24130000Y19697820D01*
X24051260D01*
G01X24114250Y19732750D02*
X24123440Y19738590D01*
X24128690Y19746380D01*
X24130000Y19755140D01*
X24128690Y19762930D01*
X24122130Y19770720D01*
X24114250Y19775590D01*
X24106380Y19776560D01*
X24097190Y19774620D01*
X24090630Y19767800D01*
X24088000Y19760990D01*
Y19752220D01*
G01Y19760990D02*
X24084070Y19766830D01*
X24077510Y19771700D01*
X24069630Y19773640D01*
X24061760Y19771700D01*
X24055200Y19766830D01*
X24051260Y19758060D01*
X24052570Y19749300D01*
X24057820Y19740540D01*
G01X24122180Y22339370D02*
X24126120Y22345210D01*
X24128740Y22352030D01*
Y22359820D01*
X24124800Y22368580D01*
X24118240Y22375390D01*
X24110370Y22380260D01*
X24097240Y22384160D01*
X24085430Y22385130D01*
X24073620Y22383180D01*
X24065750Y22380260D01*
X24057870Y22374420D01*
X24052620Y22367610D01*
X24050000Y22360790D01*
Y22353970D01*
X24052620Y22347160D01*
X24056560Y22341320D01*
X24061810Y22336450D01*
G01X24050000Y22282050D02*
X24051310Y22289840D01*
X24056560Y22296650D01*
X24064430Y22302500D01*
X24073620Y22306390D01*
X24084120Y22308340D01*
X24094620D01*
X24105120Y22306390D01*
X24114310Y22302500D01*
X24122180Y22296650D01*
X24127430Y22289840D01*
X24128740Y22282050D01*
X24127430Y22274260D01*
X24122180Y22267450D01*
X24114310Y22261600D01*
X24105120Y22257710D01*
X24094620Y22255760D01*
X24084120D01*
X24073620Y22257710D01*
X24064430Y22261600D01*
X24056560Y22267450D01*
X24051310Y22274260D01*
X24050000Y22282050D01*
G01Y22225700D02*
X24128740D01*
X24050000Y22180920D01*
X24128740D01*
G01X24050000Y22146960D02*
X24128740D01*
X24050000Y22102180D01*
X24128740D01*
G01X24115620Y22064330D02*
X24123490Y22058490D01*
X24127430Y22051670D01*
X24128740Y22043880D01*
X24126120Y22034150D01*
X24119550Y22027330D01*
X24111680Y22025380D01*
X24103800Y22026360D01*
X24097240Y22030250D01*
X24084120Y22049720D01*
X24074930Y22058490D01*
X24061810Y22064330D01*
X24050000Y22066280D01*
Y22025380D01*
G01X24905000Y18050000D02*
X25735000D01*
Y18880000D01*
X24905000D01*
Y18050000D01*
G01Y20030000D02*
Y19200000D01*
X25735000D01*
Y20030000D01*
X24905000D01*
G01X25367180Y18479370D02*
X25371120Y18485210D01*
X25373740Y18492030D01*
Y18499820D01*
X25369800Y18508580D01*
X25363240Y18515390D01*
X25355370Y18520260D01*
X25342240Y18524160D01*
X25330430Y18525130D01*
X25318620Y18523180D01*
X25310750Y18520260D01*
X25302870Y18514420D01*
X25297620Y18507610D01*
X25295000Y18500790D01*
Y18493970D01*
X25297620Y18487160D01*
X25301560Y18481320D01*
X25306810Y18476450D01*
G01X25295000Y18422050D02*
X25373740D01*
X25357990Y18433730D01*
G01X25295000D02*
Y18410370D01*
G01X25334370Y19567820D02*
X25340210Y19563880D01*
X25347030Y19561260D01*
X25354820D01*
X25363580Y19565200D01*
X25370390Y19571760D01*
X25375260Y19579630D01*
X25379160Y19592760D01*
X25380130Y19604570D01*
X25378180Y19616380D01*
X25375260Y19624250D01*
X25369420Y19632130D01*
X25362610Y19637380D01*
X25355790Y19640000D01*
X25348970D01*
X25342160Y19637380D01*
X25336320Y19633440D01*
X25331450Y19628190D01*
G01X25295550Y19574380D02*
X25289710Y19566510D01*
X25282890Y19562570D01*
X25275100Y19561260D01*
X25265370Y19563880D01*
X25258550Y19570450D01*
X25256600Y19578320D01*
X25257580Y19586200D01*
X25261470Y19592760D01*
X25280940Y19605880D01*
X25289710Y19615070D01*
X25295550Y19628190D01*
X25297500Y19640000D01*
X25256600D01*
G01X25709100Y20283630D02*
X25769100D01*
Y20266970D01*
X25766100Y20261630D01*
X25762100Y20258300D01*
X25754100Y20256970D01*
X25746100Y20258300D01*
X25741100Y20262300D01*
X25738100Y20266970D01*
Y20283630D01*
G01Y20266970D02*
X25709100Y20256970D01*
G01X25759100Y20222650D02*
X25765100Y20218650D01*
X25768100Y20213980D01*
X25769100Y20208650D01*
X25767100Y20201980D01*
X25762100Y20197310D01*
X25756100Y20195980D01*
X25750100Y20196650D01*
X25745100Y20199310D01*
X25735100Y20212650D01*
X25728100Y20218650D01*
X25718100Y20222650D01*
X25709100Y20223980D01*
Y20195980D01*
G01X25695000Y20162500D02*
X25775000D01*
Y20317500D01*
X25695000D01*
Y20162500D01*
G01X26347790Y19003740D02*
Y18947310D01*
X26351680Y18935500D01*
X26359470Y18927620D01*
X26369210Y18925000D01*
X26378950Y18927620D01*
X26386740Y18935500D01*
X26390630Y18947310D01*
Y19003740D01*
G01X26447950Y18925000D02*
Y19003740D01*
X26436270Y18987990D01*
G01Y18925000D02*
X26459630D01*
G01X26600000Y18710000D02*
Y19200000D01*
X26210000D01*
Y18710000D01*
X26600000D01*
G01X26407870Y19663300D02*
Y19603300D01*
X26434530D01*
G01X26481520D02*
Y19663300D01*
X26473520Y19651300D01*
G01Y19603300D02*
X26489520D01*
G01X26527500Y19590000D02*
Y19670000D01*
X26372500D01*
Y19590000D01*
X26527500D01*
G01X26162790Y19335000D02*
Y19413740D01*
X26182260D01*
X26190050Y19409800D01*
X26195890Y19404550D01*
X26200760Y19396680D01*
X26204660Y19387490D01*
X26205630Y19374370D01*
X26204660Y19361250D01*
X26200760Y19352060D01*
X26195890Y19344180D01*
X26190050Y19338940D01*
X26182260Y19335000D01*
X26162790D01*
G01X26262950D02*
Y19413740D01*
X26251270Y19397990D01*
G01Y19335000D02*
X26274630D01*
G01X26350000Y19285000D02*
Y19445000D01*
X26080000D01*
Y19285000D01*
X26350000D01*
G01X25944100Y20358630D02*
X26004100D01*
Y20341970D01*
X26001100Y20336630D01*
X25997100Y20333300D01*
X25989100Y20331970D01*
X25981100Y20333300D01*
X25976100Y20337300D01*
X25973100Y20341970D01*
Y20358630D01*
G01Y20341970D02*
X25944100Y20331970D01*
G01X25956100Y20299650D02*
X25949100Y20295650D01*
X25945100Y20290310D01*
X25944100Y20284310D01*
X25945100Y20278980D01*
X25950100Y20273650D01*
X25956100Y20270310D01*
X25962100Y20269650D01*
X25969100Y20270980D01*
X25974100Y20275650D01*
X25976100Y20280310D01*
Y20286310D01*
G01Y20280310D02*
X25979100Y20276310D01*
X25984100Y20272980D01*
X25990100Y20271650D01*
X25996100Y20272980D01*
X26001100Y20276310D01*
X26004100Y20282310D01*
X26003100Y20288310D01*
X25999100Y20294310D01*
G01X25930000Y20237500D02*
X26010000D01*
Y20392500D01*
X25930000D01*
Y20237500D01*
G01X26417820Y20205630D02*
X26413880Y20199790D01*
X26411260Y20192970D01*
Y20185180D01*
X26415200Y20176420D01*
X26421760Y20169610D01*
X26429630Y20164740D01*
X26442760Y20160840D01*
X26454570Y20159870D01*
X26466380Y20161820D01*
X26474250Y20164740D01*
X26482130Y20170580D01*
X26487380Y20177390D01*
X26490000Y20184210D01*
Y20191030D01*
X26487380Y20197840D01*
X26483440Y20203680D01*
X26478190Y20208550D01*
G01X26490000Y20262950D02*
X26488690Y20255160D01*
X26483440Y20248350D01*
X26475570Y20242500D01*
X26466380Y20238610D01*
X26455880Y20236660D01*
X26445380D01*
X26434880Y20238610D01*
X26425690Y20242500D01*
X26417820Y20248350D01*
X26412570Y20255160D01*
X26411260Y20262950D01*
X26412570Y20270740D01*
X26417820Y20277550D01*
X26425690Y20283400D01*
X26434880Y20287290D01*
X26445380Y20289240D01*
X26455880D01*
X26466380Y20287290D01*
X26475570Y20283400D01*
X26483440Y20277550D01*
X26488690Y20270740D01*
X26490000Y20262950D01*
G01Y20319300D02*
X26411260D01*
X26490000Y20364080D01*
X26411260D01*
G01X26490000Y20398040D02*
X26411260D01*
X26490000Y20442820D01*
X26411260D01*
G01X26490000Y20510850D02*
X26411260D01*
X26467690Y20474830D01*
Y20523510D01*
G01X26590000Y20640000D02*
X26300000D01*
Y20040000D01*
X26590000D01*
Y20640000D01*
M02*
