G04 ================== begin FILE IDENTIFICATION RECORD ==================*
G04 Layout Name:  C:/temp/MultiFx/allegro/MULTIFX.brd*
G04 Film Name:    ASSEMBLY_TOP*
G04 File Format:  Gerber RS274X*
G04 File Origin:  Cadence Allegro 17.2-S078*
G04 Origin Date:  Sun Feb 20 19:38:13 2022*
G04 *
G04 Layer:  REF DES/ASSEMBLY_TOP*
G04 Layer:  PACKAGE GEOMETRY/ASSEMBLY_TOP*
G04 Layer:  BOARD GEOMETRY/DESIGN_OUTLINE*
G04 *
G04 Offset:    (0.0000 0.0000)*
G04 Mirror:    No*
G04 Mode:      Positive*
G04 Rotation:  0*
G04 FullContactRelief:  No*
G04 UndefLineWidth:     0.1000*
G04 ================== end FILE IDENTIFICATION RECORD ====================*
%FSLAX25Y25*MOMM*%
%IR0*IPPOS*OFA0.00000B0.00000*MIA0B0*SFA1.00000B1.00000*%
%ADD10C,.1*%
G75*
%LPD*%
G75*
G54D10*
G01X16540000Y24350000D02*
Y17450000D01*
X27090000D01*
Y24350000D01*
X16540000D01*
G01Y18760000D02*
X18060000D01*
Y19660000D01*
X16540000D01*
Y18760000D01*
G01X17248680Y19317870D02*
X17252620Y19323710D01*
X17255240Y19330530D01*
Y19338320D01*
X17251300Y19347080D01*
X17244740Y19353890D01*
X17236870Y19358760D01*
X17223740Y19362660D01*
X17211930Y19363630D01*
X17200120Y19361680D01*
X17192250Y19358760D01*
X17184370Y19352920D01*
X17179120Y19346110D01*
X17176500Y19339290D01*
Y19332470D01*
X17179120Y19325660D01*
X17183060Y19319820D01*
X17188310Y19314950D01*
G01X17176500Y19260550D02*
X17177810Y19268340D01*
X17183060Y19275150D01*
X17190930Y19281000D01*
X17200120Y19284890D01*
X17210620Y19286840D01*
X17221120D01*
X17231620Y19284890D01*
X17240810Y19281000D01*
X17248680Y19275150D01*
X17253930Y19268340D01*
X17255240Y19260550D01*
X17253930Y19252760D01*
X17248680Y19245950D01*
X17240810Y19240100D01*
X17231620Y19236210D01*
X17221120Y19234260D01*
X17210620D01*
X17200120Y19236210D01*
X17190930Y19240100D01*
X17183060Y19245950D01*
X17177810Y19252760D01*
X17176500Y19260550D01*
G01Y19204200D02*
X17255240D01*
X17176500Y19159420D01*
X17255240D01*
G01X17176500Y19125460D02*
X17255240D01*
X17176500Y19080680D01*
X17255240D01*
G01X17176500Y19024330D02*
X17255240D01*
X17239490Y19036010D01*
G01X17176500D02*
Y19012650D01*
G01X18700000Y17752000D02*
X19970000D01*
Y18438000D01*
X18700000D01*
Y17752000D01*
G01X19116240Y19079500D02*
X19108450Y19086060D01*
X19099680Y19090000D01*
X19091900D01*
X19084110Y19086060D01*
X19078260Y19079500D01*
X19075340Y19070310D01*
X19077290Y19061130D01*
X19082160Y19053260D01*
X19090920Y19048000D01*
X19102610Y19045380D01*
X19109420Y19040130D01*
X19112340Y19030950D01*
X19110390Y19021760D01*
X19105530Y19015200D01*
X19098710Y19011260D01*
X19091900D01*
X19085080Y19013880D01*
X19079240Y19020450D01*
G01X19046260Y19011260D02*
X19032630Y19090000D01*
X19017050Y19011260D01*
X19001470Y19090000D01*
X18987840Y19011260D01*
G01X18926630Y19090000D02*
Y19011260D01*
X18962650Y19067690D01*
X18913970D01*
G01X18700000Y19365000D02*
Y18765000D01*
X19300000D01*
Y19365000D01*
X18700000D01*
G01Y20350000D02*
Y19750000D01*
X19300000D01*
Y20350000D01*
X18700000D01*
G01X19116240Y20064500D02*
X19108450Y20071060D01*
X19099680Y20075000D01*
X19091900D01*
X19084110Y20071060D01*
X19078260Y20064500D01*
X19075340Y20055310D01*
X19077290Y20046130D01*
X19082160Y20038260D01*
X19090920Y20033000D01*
X19102610Y20030380D01*
X19109420Y20025130D01*
X19112340Y20015950D01*
X19110390Y20006760D01*
X19105530Y20000200D01*
X19098710Y19996260D01*
X19091900D01*
X19085080Y19998880D01*
X19079240Y20005450D01*
G01X19046260Y19996260D02*
X19032630Y20075000D01*
X19017050Y19996260D01*
X19001470Y20075000D01*
X18987840Y19996260D01*
G01X18959730Y20059250D02*
X18953890Y20068440D01*
X18946100Y20073690D01*
X18937340Y20075000D01*
X18929550Y20073690D01*
X18921760Y20067130D01*
X18916890Y20059250D01*
X18915920Y20051380D01*
X18917860Y20042190D01*
X18924680Y20035630D01*
X18931490Y20033000D01*
X18940260D01*
G01X18931490D02*
X18925650Y20029070D01*
X18920780Y20022510D01*
X18918840Y20014630D01*
X18920780Y20006760D01*
X18925650Y20000200D01*
X18934420Y19996260D01*
X18943180Y19997570D01*
X18951940Y20002820D01*
G01X19116240Y21014500D02*
X19108450Y21021060D01*
X19099680Y21025000D01*
X19091900D01*
X19084110Y21021060D01*
X19078260Y21014500D01*
X19075340Y21005310D01*
X19077290Y20996130D01*
X19082160Y20988260D01*
X19090920Y20983000D01*
X19102610Y20980380D01*
X19109420Y20975130D01*
X19112340Y20965950D01*
X19110390Y20956760D01*
X19105530Y20950200D01*
X19098710Y20946260D01*
X19091900D01*
X19085080Y20948880D01*
X19079240Y20955450D01*
G01X19046260Y20946260D02*
X19032630Y21025000D01*
X19017050Y20946260D01*
X19001470Y21025000D01*
X18987840Y20946260D01*
G01X18956810Y20959380D02*
X18950970Y20951510D01*
X18944150Y20947570D01*
X18936360Y20946260D01*
X18926630Y20948880D01*
X18919810Y20955450D01*
X18917860Y20963320D01*
X18918840Y20971200D01*
X18922730Y20977760D01*
X18942200Y20990880D01*
X18950970Y21000070D01*
X18956810Y21013190D01*
X18958760Y21025000D01*
X18917860D01*
G01X18700000Y21300000D02*
Y20700000D01*
X19300000D01*
Y21300000D01*
X18700000D01*
G01X19625000Y22870000D02*
X18375000D01*
Y21730000D01*
X19625000D01*
Y22870000D01*
G01X19025000Y22221770D02*
X18961500D01*
Y22238030D01*
X18964680Y22243450D01*
X18972080Y22247510D01*
X18980550Y22248870D01*
X18989020Y22247510D01*
X18995370Y22244130D01*
X18998540Y22238030D01*
Y22221770D01*
G01X19025000Y22291200D02*
X19023940Y22285780D01*
X19019710Y22281040D01*
X19013360Y22276980D01*
X19005950Y22274270D01*
X18997480Y22272910D01*
X18989020D01*
X18980550Y22274270D01*
X18973140Y22276980D01*
X18966790Y22281040D01*
X18962560Y22285780D01*
X18961500Y22291200D01*
X18962560Y22296620D01*
X18966790Y22301360D01*
X18973140Y22305420D01*
X18980550Y22308130D01*
X18989020Y22309490D01*
X18997480D01*
X19005950Y22308130D01*
X19013360Y22305420D01*
X19019710Y22301360D01*
X19023940Y22296620D01*
X19025000Y22291200D01*
G01X18961500Y22347080D02*
X19025000D01*
G01X18961500Y22331500D02*
Y22362660D01*
G01X18972080Y22390090D02*
X18965730Y22394150D01*
X18962560Y22398900D01*
X18961500Y22404310D01*
X18963620Y22411090D01*
X18968910Y22415830D01*
X18975260Y22417180D01*
X18981610Y22416510D01*
X18986900Y22413800D01*
X18997480Y22400250D01*
X19004890Y22394150D01*
X19015480Y22390090D01*
X19025000Y22388740D01*
Y22417180D01*
G01X19625000Y24320000D02*
X18375000D01*
Y23180000D01*
X19625000D01*
Y24320000D01*
G01X19025000Y23671770D02*
X18961500D01*
Y23688030D01*
X18964680Y23693450D01*
X18972080Y23697510D01*
X18980550Y23698870D01*
X18989020Y23697510D01*
X18995370Y23694130D01*
X18998540Y23688030D01*
Y23671770D01*
G01X19025000Y23741200D02*
X19023940Y23735780D01*
X19019710Y23731040D01*
X19013360Y23726980D01*
X19005950Y23724270D01*
X18997480Y23722910D01*
X18989020D01*
X18980550Y23724270D01*
X18973140Y23726980D01*
X18966790Y23731040D01*
X18962560Y23735780D01*
X18961500Y23741200D01*
X18962560Y23746620D01*
X18966790Y23751360D01*
X18973140Y23755420D01*
X18980550Y23758130D01*
X18989020Y23759490D01*
X18997480D01*
X19005950Y23758130D01*
X19013360Y23755420D01*
X19019710Y23751360D01*
X19023940Y23746620D01*
X19025000Y23741200D01*
G01X18961500Y23797080D02*
X19025000D01*
G01X18961500Y23781500D02*
Y23812660D01*
G01X19025000Y23852960D02*
X18961500D01*
X18974200Y23844830D01*
G01X19025000D02*
Y23861090D01*
G01X19320500Y18181240D02*
X19313940Y18173450D01*
X19310000Y18164680D01*
Y18156900D01*
X19313940Y18149110D01*
X19320500Y18143260D01*
X19329690Y18140340D01*
X19338870Y18142290D01*
X19346740Y18147160D01*
X19352000Y18155920D01*
X19354620Y18167610D01*
X19359870Y18174420D01*
X19369050Y18177340D01*
X19378240Y18175390D01*
X19384800Y18170530D01*
X19388740Y18163710D01*
Y18156900D01*
X19386120Y18150080D01*
X19379550Y18144240D01*
G01X19388740Y18111260D02*
X19310000Y18097630D01*
X19388740Y18082050D01*
X19310000Y18066470D01*
X19388740Y18052840D01*
G01X19310000Y18003310D02*
X19388740D01*
X19372990Y18014990D01*
G01X19310000D02*
Y17991630D01*
G01X20501000Y19136670D02*
X20471000D01*
Y19123330D01*
G01Y19102090D02*
X20501000D01*
Y19095430D01*
X20499500Y19092760D01*
X20497500Y19090760D01*
X20494500Y19089090D01*
X20491000Y19087760D01*
X20486000Y19087430D01*
X20481000Y19087760D01*
X20477500Y19089090D01*
X20474500Y19090760D01*
X20472500Y19092760D01*
X20471000Y19095430D01*
Y19102090D01*
G01Y19059520D02*
X20501000D01*
X20495000Y19063520D01*
G01X20471000D02*
Y19055520D01*
G01X20460000Y19045000D02*
X20510000D01*
Y19145000D01*
X20460000D01*
Y19045000D01*
G01X20510900Y18796370D02*
X20450900D01*
Y18813030D01*
X20453900Y18818370D01*
X20457900Y18821700D01*
X20465900Y18823030D01*
X20473900Y18821700D01*
X20478900Y18817700D01*
X20481900Y18813030D01*
Y18796370D01*
G01Y18813030D02*
X20510900Y18823030D01*
G01Y18870020D02*
X20450900D01*
X20462900Y18862020D01*
G01X20510900D02*
Y18878020D01*
G01X20525000Y18917500D02*
X20445000D01*
Y18762500D01*
X20525000D01*
Y18917500D01*
G01X21328000Y22530000D02*
Y17450000D01*
X21582000D01*
Y22530000D01*
X21328000D01*
G01X21522760Y20000250D02*
X21517890Y20008130D01*
X21512050Y20013380D01*
X21505240Y20016000D01*
X21497450Y20013380D01*
X21491610Y20008130D01*
X21485760Y20000250D01*
X21483820Y19989750D01*
Y19937260D01*
G01X21424550Y20016000D02*
Y19937260D01*
X21436230Y19953010D01*
G01Y20016000D02*
X21412870D01*
G01X23071000Y17450000D02*
Y22530000D01*
X22817000D01*
Y17450000D01*
X23071000D01*
G01X24660000Y20855000D02*
X23620000D01*
Y17455000D01*
X24660000D01*
Y20855000D01*
G01X22876240Y19979750D02*
X22881110Y19971870D01*
X22886950Y19966620D01*
X22893760Y19964000D01*
X22901550Y19966620D01*
X22907390Y19971870D01*
X22913240Y19979750D01*
X22915180Y19990250D01*
Y20042740D01*
G01X22955950Y20029620D02*
X22961790Y20037490D01*
X22968610Y20041430D01*
X22976400Y20042740D01*
X22986130Y20040120D01*
X22992950Y20033550D01*
X22994900Y20025680D01*
X22993920Y20017800D01*
X22990030Y20011240D01*
X22970560Y19998120D01*
X22961790Y19988930D01*
X22955950Y19975810D01*
X22954000Y19964000D01*
X22994900D01*
G01X23620000Y20950000D02*
X24660000D01*
Y24350000D01*
X23620000D01*
Y20950000D01*
G01X24107820Y19465630D02*
X24103880Y19459790D01*
X24101260Y19452970D01*
Y19445180D01*
X24105200Y19436420D01*
X24111760Y19429610D01*
X24119630Y19424740D01*
X24132760Y19420840D01*
X24144570Y19419870D01*
X24156380Y19421820D01*
X24164250Y19424740D01*
X24172130Y19430580D01*
X24177380Y19437390D01*
X24180000Y19444210D01*
Y19451030D01*
X24177380Y19457840D01*
X24173440Y19463680D01*
X24168190Y19468550D01*
G01X24180000Y19522950D02*
X24178690Y19515160D01*
X24173440Y19508350D01*
X24165570Y19502500D01*
X24156380Y19498610D01*
X24145880Y19496660D01*
X24135380D01*
X24124880Y19498610D01*
X24115690Y19502500D01*
X24107820Y19508350D01*
X24102570Y19515160D01*
X24101260Y19522950D01*
X24102570Y19530740D01*
X24107820Y19537550D01*
X24115690Y19543400D01*
X24124880Y19547290D01*
X24135380Y19549240D01*
X24145880D01*
X24156380Y19547290D01*
X24165570Y19543400D01*
X24173440Y19537550D01*
X24178690Y19530740D01*
X24180000Y19522950D01*
G01Y19579300D02*
X24101260D01*
X24180000Y19624080D01*
X24101260D01*
G01X24180000Y19658040D02*
X24101260D01*
X24180000Y19702820D01*
X24101260D01*
G01X24164250Y19737750D02*
X24173440Y19743590D01*
X24178690Y19751380D01*
X24180000Y19760140D01*
X24178690Y19767930D01*
X24172130Y19775720D01*
X24164250Y19780590D01*
X24156380Y19781560D01*
X24147190Y19779620D01*
X24140630Y19772800D01*
X24138000Y19765990D01*
Y19757220D01*
G01Y19765990D02*
X24134070Y19771830D01*
X24127510Y19776700D01*
X24119630Y19778640D01*
X24111760Y19776700D01*
X24105200Y19771830D01*
X24101260Y19763060D01*
X24102570Y19754300D01*
X24107820Y19745540D01*
G01X24172180Y22339370D02*
X24176120Y22345210D01*
X24178740Y22352030D01*
Y22359820D01*
X24174800Y22368580D01*
X24168240Y22375390D01*
X24160370Y22380260D01*
X24147240Y22384160D01*
X24135430Y22385130D01*
X24123620Y22383180D01*
X24115750Y22380260D01*
X24107870Y22374420D01*
X24102620Y22367610D01*
X24100000Y22360790D01*
Y22353970D01*
X24102620Y22347160D01*
X24106560Y22341320D01*
X24111810Y22336450D01*
G01X24100000Y22282050D02*
X24101310Y22289840D01*
X24106560Y22296650D01*
X24114430Y22302500D01*
X24123620Y22306390D01*
X24134120Y22308340D01*
X24144620D01*
X24155120Y22306390D01*
X24164310Y22302500D01*
X24172180Y22296650D01*
X24177430Y22289840D01*
X24178740Y22282050D01*
X24177430Y22274260D01*
X24172180Y22267450D01*
X24164310Y22261600D01*
X24155120Y22257710D01*
X24144620Y22255760D01*
X24134120D01*
X24123620Y22257710D01*
X24114430Y22261600D01*
X24106560Y22267450D01*
X24101310Y22274260D01*
X24100000Y22282050D01*
G01Y22225700D02*
X24178740D01*
X24100000Y22180920D01*
X24178740D01*
G01X24100000Y22146960D02*
X24178740D01*
X24100000Y22102180D01*
X24178740D01*
G01X24165620Y22064330D02*
X24173490Y22058490D01*
X24177430Y22051670D01*
X24178740Y22043880D01*
X24176120Y22034150D01*
X24169550Y22027330D01*
X24161680Y22025380D01*
X24153800Y22026360D01*
X24147240Y22030250D01*
X24134120Y22049720D01*
X24124930Y22058490D01*
X24111810Y22064330D01*
X24100000Y22066280D01*
Y22025380D01*
G01X24905000Y18050000D02*
X25735000D01*
Y18880000D01*
X24905000D01*
Y18050000D01*
G01Y20030000D02*
Y19200000D01*
X25735000D01*
Y20030000D01*
X24905000D01*
G01X25367180Y18479370D02*
X25371120Y18485210D01*
X25373740Y18492030D01*
Y18499820D01*
X25369800Y18508580D01*
X25363240Y18515390D01*
X25355370Y18520260D01*
X25342240Y18524160D01*
X25330430Y18525130D01*
X25318620Y18523180D01*
X25310750Y18520260D01*
X25302870Y18514420D01*
X25297620Y18507610D01*
X25295000Y18500790D01*
Y18493970D01*
X25297620Y18487160D01*
X25301560Y18481320D01*
X25306810Y18476450D01*
G01X25295000Y18422050D02*
X25373740D01*
X25357990Y18433730D01*
G01X25295000D02*
Y18410370D01*
G01X25334370Y19567820D02*
X25340210Y19563880D01*
X25347030Y19561260D01*
X25354820D01*
X25363580Y19565200D01*
X25370390Y19571760D01*
X25375260Y19579630D01*
X25379160Y19592760D01*
X25380130Y19604570D01*
X25378180Y19616380D01*
X25375260Y19624250D01*
X25369420Y19632130D01*
X25362610Y19637380D01*
X25355790Y19640000D01*
X25348970D01*
X25342160Y19637380D01*
X25336320Y19633440D01*
X25331450Y19628190D01*
G01X25295550Y19574380D02*
X25289710Y19566510D01*
X25282890Y19562570D01*
X25275100Y19561260D01*
X25265370Y19563880D01*
X25258550Y19570450D01*
X25256600Y19578320D01*
X25257580Y19586200D01*
X25261470Y19592760D01*
X25280940Y19605880D01*
X25289710Y19615070D01*
X25295550Y19628190D01*
X25297500Y19640000D01*
X25256600D01*
G01X25709100Y20283630D02*
X25769100D01*
Y20266970D01*
X25766100Y20261630D01*
X25762100Y20258300D01*
X25754100Y20256970D01*
X25746100Y20258300D01*
X25741100Y20262300D01*
X25738100Y20266970D01*
Y20283630D01*
G01Y20266970D02*
X25709100Y20256970D01*
G01X25759100Y20222650D02*
X25765100Y20218650D01*
X25768100Y20213980D01*
X25769100Y20208650D01*
X25767100Y20201980D01*
X25762100Y20197310D01*
X25756100Y20195980D01*
X25750100Y20196650D01*
X25745100Y20199310D01*
X25735100Y20212650D01*
X25728100Y20218650D01*
X25718100Y20222650D01*
X25709100Y20223980D01*
Y20195980D01*
G01X25695000Y20162500D02*
X25775000D01*
Y20317500D01*
X25695000D01*
Y20162500D01*
G01X26347790Y19003740D02*
Y18947310D01*
X26351680Y18935500D01*
X26359470Y18927620D01*
X26369210Y18925000D01*
X26378950Y18927620D01*
X26386740Y18935500D01*
X26390630Y18947310D01*
Y19003740D01*
G01X26447950Y18925000D02*
Y19003740D01*
X26436270Y18987990D01*
G01Y18925000D02*
X26459630D01*
G01X26600000Y18710000D02*
Y19200000D01*
X26210000D01*
Y18710000D01*
X26600000D01*
G01X26407870Y19663300D02*
Y19603300D01*
X26434530D01*
G01X26481520D02*
Y19663300D01*
X26473520Y19651300D01*
G01Y19603300D02*
X26489520D01*
G01X26527500Y19590000D02*
Y19670000D01*
X26372500D01*
Y19590000D01*
X26527500D01*
G01X26162790Y19335000D02*
Y19413740D01*
X26182260D01*
X26190050Y19409800D01*
X26195890Y19404550D01*
X26200760Y19396680D01*
X26204660Y19387490D01*
X26205630Y19374370D01*
X26204660Y19361250D01*
X26200760Y19352060D01*
X26195890Y19344180D01*
X26190050Y19338940D01*
X26182260Y19335000D01*
X26162790D01*
G01X26262950D02*
Y19413740D01*
X26251270Y19397990D01*
G01Y19335000D02*
X26274630D01*
G01X26350000Y19285000D02*
Y19445000D01*
X26080000D01*
Y19285000D01*
X26350000D01*
G01X25944100Y20358630D02*
X26004100D01*
Y20341970D01*
X26001100Y20336630D01*
X25997100Y20333300D01*
X25989100Y20331970D01*
X25981100Y20333300D01*
X25976100Y20337300D01*
X25973100Y20341970D01*
Y20358630D01*
G01Y20341970D02*
X25944100Y20331970D01*
G01X25956100Y20299650D02*
X25949100Y20295650D01*
X25945100Y20290310D01*
X25944100Y20284310D01*
X25945100Y20278980D01*
X25950100Y20273650D01*
X25956100Y20270310D01*
X25962100Y20269650D01*
X25969100Y20270980D01*
X25974100Y20275650D01*
X25976100Y20280310D01*
Y20286310D01*
G01Y20280310D02*
X25979100Y20276310D01*
X25984100Y20272980D01*
X25990100Y20271650D01*
X25996100Y20272980D01*
X26001100Y20276310D01*
X26004100Y20282310D01*
X26003100Y20288310D01*
X25999100Y20294310D01*
G01X25930000Y20237500D02*
X26010000D01*
Y20392500D01*
X25930000D01*
Y20237500D01*
G01X26417820Y20205630D02*
X26413880Y20199790D01*
X26411260Y20192970D01*
Y20185180D01*
X26415200Y20176420D01*
X26421760Y20169610D01*
X26429630Y20164740D01*
X26442760Y20160840D01*
X26454570Y20159870D01*
X26466380Y20161820D01*
X26474250Y20164740D01*
X26482130Y20170580D01*
X26487380Y20177390D01*
X26490000Y20184210D01*
Y20191030D01*
X26487380Y20197840D01*
X26483440Y20203680D01*
X26478190Y20208550D01*
G01X26490000Y20262950D02*
X26488690Y20255160D01*
X26483440Y20248350D01*
X26475570Y20242500D01*
X26466380Y20238610D01*
X26455880Y20236660D01*
X26445380D01*
X26434880Y20238610D01*
X26425690Y20242500D01*
X26417820Y20248350D01*
X26412570Y20255160D01*
X26411260Y20262950D01*
X26412570Y20270740D01*
X26417820Y20277550D01*
X26425690Y20283400D01*
X26434880Y20287290D01*
X26445380Y20289240D01*
X26455880D01*
X26466380Y20287290D01*
X26475570Y20283400D01*
X26483440Y20277550D01*
X26488690Y20270740D01*
X26490000Y20262950D01*
G01Y20319300D02*
X26411260D01*
X26490000Y20364080D01*
X26411260D01*
G01X26490000Y20398040D02*
X26411260D01*
X26490000Y20442820D01*
X26411260D01*
G01X26490000Y20510850D02*
X26411260D01*
X26467690Y20474830D01*
Y20523510D01*
G01X26590000Y20640000D02*
X26300000D01*
Y20040000D01*
X26590000D01*
Y20640000D01*
M02*
