M48
METRIC,TZ
T01C.5
T02C1.
T03C1.2
;EXTENTS: 0.000   0.000   533.400 431.800 
;LEADER: 12 
;HEADER: 
;CODE  : ASCII 
;FILE  : C:/temp/MultiFx/allegro/MULTIFX_1-2.rou for board C:/temp/MultiFx/allegro/#Taaaaaz06728.tmp, layers TOP to BOTTOM
%
G90
F1
M16
T01
M16
G00X179400Y191200
G41
M15
G01X180400Y191200
G01X180400Y192800
G01X179400Y192800
G01X179400Y191200
M16
G00X173400Y191200
G41
M15
G01X174400Y191200
G01X174400Y192800
G01X173400Y192800
G01X173400Y191200
M16
G00X176100Y187800
G41
M15
G01X176100Y186800
G01X177700Y186800
G01X177700Y187800
G01X176100Y187800
M16
G00X187950Y218200
G41
M15
G01X187950Y216200
G01X190350Y216200
G01X190350Y218200
G01X187950Y218200
M16
G00X187950Y226800
G41
M15
G01X187950Y224800
G01X190350Y224800
G01X190350Y226800
G01X187950Y226800
M16
G00X187950Y233200
G41
M15
G01X187950Y231200
G01X190350Y231200
G01X190350Y233200
G01X187950Y233200
M16
G00X187950Y241800
G41
M15
G01X187950Y239800
G01X190350Y239800
G01X190350Y241800
G01X187950Y241800
M16
T03
M16
G00X240900Y226400
G40
M15
G01X240900Y227600
M16
G00X238400Y211500
G40
M15
G01X238400Y212700
M16
G00X240900Y190400
G40
M15
G01X240900Y191600
M16
G00X243400Y205300
G40
M15
G01X243400Y206500
M16
G40
M30
