M48
METRIC,TZ
T01C.3
T02C1.2
T03C1.85
T04C2.2
T05C5.
;LEADER: 12 
;HEADER: 
;CODE  : ASCII 
;FILE  : MULTIFX-1-2.drl for  ... layers TOP and BOTTOM
;DESIGN: MULTIFX.brd
;T01 Holesize 1. = 0.300000 Tolerance = +0.000000/-0.000000 PLATED MM Quantity = 22
;T02 Holesize 2. = 1.200000 Tolerance = +0.000000/-0.000000 PLATED MM Quantity = 6
;T03 Holesize 3. = 1.850000 Tolerance = +0.000000/-0.000000 PLATED MM Quantity = 3
%
G90
T01
X260200Y187645
X255000Y179800
X251150Y179800
X203750Y191450
X196050Y191750
X183800Y191750
X218080Y175770
X248200Y197950
X260515Y194965
X248150Y194400
X261150Y204900
X226150Y224030
X265200Y207300
X196000Y211750
X183750Y211750
X265200Y199400
X196150Y201750
X183800Y201750
X267850Y188915
X267850Y187645
X267850Y191455
X267850Y190185
T02
X196150Y221500
X196150Y224000
X196150Y219000
X196150Y236500
X196150Y239000
X196150Y234000
T03
X189900Y179500
X194600Y179500
X185200Y179500
M30
