M48
METRIC,TZ
T01C.3
T02C1.2
T03C1.85
T04C2.2
T05C5.
;LEADER: 12 
;HEADER: 
;CODE  : ASCII 
;FILE  : MULTIFX-1-2.drl for  ... layers TOP and BOTTOM
;DESIGN: MULTIFX.brd
;T01 Holesize 1. = 0.300000 Tolerance = +0.000000/-0.000000 PLATED MM Quantity = 22
;T02 Holesize 2. = 1.200000 Tolerance = +0.000000/-0.000000 PLATED MM Quantity = 6
;T03 Holesize 3. = 1.850000 Tolerance = +0.000000/-0.000000 PLATED MM Quantity = 3
%
G90
T01
X183800Y212250
X183850Y202750
X183900Y192900
X248200Y197950
X260515Y194965
X248150Y194400
X261150Y204900
X226150Y224030
X265200Y207300
X196150Y212250
X265200Y199400
X196150Y202750
X196050Y192900
X260200Y187645
X255000Y179800
X267850Y188915
X251150Y179800
X267850Y187645
X267850Y191455
X267850Y190185
X203750Y191400
X218080Y175770
T02
X196250Y237500
X196250Y240000
X196250Y235000
X196250Y223000
X196250Y225500
X196250Y220500
T03
X193350Y180950
X188650Y180950
X198050Y180950
M30
