M48
METRIC,TZ
T01C.5
T02C1.
T03C1.2
;EXTENTS: 0.000   0.000   533.400 431.800 
;LEADER: 12 
;HEADER: 
;CODE  : ASCII 
;FILE  : C:/temp/MultiFx/allegro/MULTIFX_1-2.rou for board C:/temp/MultiFx/allegro/#Taaaage09608.tmp, layers TOP to BOTTOM
%
G90
F1
M16
T01
M16
G00X188050Y234200
G41
M15
G01X188050Y232200
G01X190450Y232200
G01X190450Y234200
G01X188050Y234200
M16
G00X188050Y242800
G41
M15
G01X188050Y240800
G01X190450Y240800
G01X190450Y242800
G01X188050Y242800
M16
G00X188050Y219700
G41
M15
G01X188050Y217700
G01X190450Y217700
G01X190450Y219700
G01X188050Y219700
M16
G00X188050Y228300
G41
M15
G01X188050Y226300
G01X190450Y226300
G01X190450Y228300
G01X188050Y228300
M16
G00X179400Y191300
G41
M15
G01X180400Y191300
G01X180400Y192900
G01X179400Y192900
G01X179400Y191300
M16
G00X173400Y191300
G41
M15
G01X174400Y191300
G01X174400Y192900
G01X173400Y192900
G01X173400Y191300
M16
G00X176100Y187900
G41
M15
G01X176100Y186900
G01X177700Y186900
G01X177700Y187900
G01X176100Y187900
M16
T03
M16
G00X241400Y226400
G40
M15
G01X241400Y227600
M16
G00X238900Y211500
G40
M15
G01X238900Y212700
M16
G00X241400Y190450
G40
M15
G01X241400Y191650
M16
G00X243900Y205350
G40
M15
G01X243900Y206550
M16
G40
M30
