G04 ================== begin FILE IDENTIFICATION RECORD ==================*
G04 Layout Name:  C:/temp/MultiFx/allegro/MULTIFX.brd*
G04 Film Name:    SILKSCREEN_TOP*
G04 File Format:  Gerber RS274X*
G04 File Origin:  Cadence Allegro 17.2-S078*
G04 Origin Date:  Sun Feb 20 19:38:13 2022*
G04 *
G04 Layer:  REF DES/SILKSCREEN_TOP*
G04 Layer:  PACKAGE GEOMETRY/SILKSCREEN_TOP*
G04 Layer:  BOARD GEOMETRY/DESIGN_OUTLINE*
G04 *
G04 Offset:    (0.0000 0.0000)*
G04 Mirror:    No*
G04 Mode:      Positive*
G04 Rotation:  0*
G04 FullContactRelief:  No*
G04 UndefLineWidth:     0.1000*
G04 ================== end FILE IDENTIFICATION RECORD ====================*
%FSLAX25Y25*MOMM*%
%IR0*IPPOS*OFA0.00000B0.00000*MIA0B0*SFA1.00000B1.00000*%
%ADD10C,.1*%
G75*
%LPD*%
G75*
G36*
G01X18184500Y19202000D02*
G03I-30000J0D01*
G37*
G36*
G01X19490000Y19440000D02*
G03I-30000J0D01*
G37*
G36*
G01Y20425000D02*
G03I-30000J0D01*
G37*
G36*
G01Y21375000D02*
G03I-30000J0D01*
G37*
G36*
G01X20499000Y19216000D02*
G03I-15000J0D01*
G37*
G36*
G01X21123000Y22405500D02*
G03I-30000J0D01*
G37*
G36*
G01X23336000Y17574500D02*
G03I-30000J0D01*
G37*
G36*
G01X25355000Y19120000D02*
G03I-30000J0D01*
G37*
G36*
G01X26030000Y19145000D02*
G03I-30000J0D01*
G37*
G36*
G01X25970000Y19365000D02*
G03I-30000J0D01*
G37*
G36*
G01X26005000Y19610000D02*
G03I-30000J0D01*
G37*
G36*
G01X26255000Y20090000D02*
G03I-30000J0D01*
G37*
G54D10*
G01X17551500Y18760000D02*
X16540000D01*
Y19660000D01*
X18060000D01*
Y19344000D01*
G01Y19089500D02*
Y18760000D01*
X17808500D01*
G01X19970000Y18440000D02*
Y17750000D01*
X18700000D01*
Y18440000D01*
X19970000D01*
G01X19300000Y18765000D02*
X18700000D01*
Y19365000D01*
X19300000D01*
Y18765000D01*
G01Y19750000D02*
X18700000D01*
Y20350000D01*
X19300000D01*
Y19750000D01*
G01Y20700000D02*
X18700000D01*
Y21300000D01*
X19300000D01*
Y20700000D01*
G01X19625000Y22665000D02*
Y22870000D01*
X18375000D01*
Y21730000D01*
X19625000D01*
Y21935000D01*
G01Y24115000D02*
Y24320000D01*
X18375000D01*
Y23180000D01*
X19625000D01*
Y23385000D01*
G01X20525000Y19190000D02*
X20445000D01*
Y19000000D01*
X20525000D01*
Y19190000D01*
G01X20425000Y18720000D02*
X20545000D01*
Y18960000D01*
X20425000D01*
Y18720000D01*
G01X21582000Y17450000D02*
X21328000D01*
G01X21582000Y22530000D02*
X21328000D01*
G01X22817000Y17450000D02*
X23071000D01*
G01X22817000Y22530000D02*
X23071000D01*
G01X23620000Y17455000D02*
X24660000D01*
Y20855000D01*
X23620000D01*
Y17455000D01*
G01X24660000Y24350000D02*
X23620000D01*
Y20950000D01*
X24660000D01*
Y24350000D01*
G01X25180000Y18880000D02*
X24905000D01*
Y18050000D01*
X25180000D01*
G01X25735000Y19755000D02*
Y20030000D01*
X24905000D01*
Y19755000D01*
G01X25735000Y19475000D02*
Y19200000D01*
X24905000D01*
Y19475000D01*
G01X25460000Y18880000D02*
X25735000D01*
Y18050000D01*
X25460000D01*
G01X26030000Y20435000D02*
X25910000D01*
Y20195000D01*
X26030000D01*
Y20435000D01*
G01X25795000Y20360000D02*
X25675000D01*
Y20120000D01*
X25795000D01*
Y20360000D01*
G01X26210000Y18710000D02*
X26600000D01*
G01X26210000Y19200000D02*
X26600000D01*
G01X26330000Y19690000D02*
Y19570000D01*
X26570000D01*
Y19690000D01*
X26330000D01*
G01X26080000Y19285000D02*
X26350000D01*
G01X26080000Y19445000D02*
X26350000D01*
G01X26590000Y20150000D02*
Y20525000D01*
G01X26345000Y20040000D02*
X26300000D01*
Y20085000D01*
G01Y20585000D02*
Y20640000D01*
X26355000D01*
G01X16540000Y24350000D02*
Y17450000D01*
X27090000D01*
Y24350000D01*
X16540000D01*
G01X17695630Y19797180D02*
X17689790Y19801120D01*
X17682970Y19803740D01*
X17675180D01*
X17666420Y19799800D01*
X17659610Y19793240D01*
X17654740Y19785370D01*
X17650840Y19772240D01*
X17649870Y19760430D01*
X17651820Y19748620D01*
X17654740Y19740750D01*
X17660580Y19732870D01*
X17667390Y19727620D01*
X17674210Y19725000D01*
X17681030D01*
X17687840Y19727620D01*
X17693680Y19731560D01*
X17698550Y19736810D01*
G01X17752950Y19725000D02*
X17745160Y19726310D01*
X17738350Y19731560D01*
X17732500Y19739430D01*
X17728610Y19748620D01*
X17726660Y19759120D01*
Y19769620D01*
X17728610Y19780120D01*
X17732500Y19789310D01*
X17738350Y19797180D01*
X17745160Y19802430D01*
X17752950Y19803740D01*
X17760740Y19802430D01*
X17767550Y19797180D01*
X17773400Y19789310D01*
X17777290Y19780120D01*
X17779240Y19769620D01*
Y19759120D01*
X17777290Y19748620D01*
X17773400Y19739430D01*
X17767550Y19731560D01*
X17760740Y19726310D01*
X17752950Y19725000D01*
G01X17809300D02*
Y19803740D01*
X17854080Y19725000D01*
Y19803740D01*
G01X17888040Y19725000D02*
Y19803740D01*
X17932820Y19725000D01*
Y19803740D01*
G01X17989170Y19725000D02*
Y19803740D01*
X17977490Y19787990D01*
G01Y19725000D02*
X18000850D01*
G01X18285000Y22221770D02*
X18221500D01*
Y22238030D01*
X18224680Y22243450D01*
X18232080Y22247510D01*
X18240550Y22248870D01*
X18249020Y22247510D01*
X18255370Y22244130D01*
X18258540Y22238030D01*
Y22221770D01*
G01X18285000Y22291200D02*
X18283940Y22285780D01*
X18279710Y22281040D01*
X18273360Y22276980D01*
X18265950Y22274270D01*
X18257480Y22272910D01*
X18249020D01*
X18240550Y22274270D01*
X18233140Y22276980D01*
X18226790Y22281040D01*
X18222560Y22285780D01*
X18221500Y22291200D01*
X18222560Y22296620D01*
X18226790Y22301360D01*
X18233140Y22305420D01*
X18240550Y22308130D01*
X18249020Y22309490D01*
X18257480D01*
X18265950Y22308130D01*
X18273360Y22305420D01*
X18279710Y22301360D01*
X18283940Y22296620D01*
X18285000Y22291200D01*
G01X18221500Y22347080D02*
X18285000D01*
G01X18221500Y22331500D02*
Y22362660D01*
G01X18232080Y22390090D02*
X18225730Y22394150D01*
X18222560Y22398900D01*
X18221500Y22404310D01*
X18223620Y22411090D01*
X18228910Y22415830D01*
X18235260Y22417180D01*
X18241610Y22416510D01*
X18246900Y22413800D01*
X18257480Y22400250D01*
X18264890Y22394150D01*
X18275480Y22390090D01*
X18285000Y22388740D01*
Y22417180D01*
G01Y23671770D02*
X18221500D01*
Y23688030D01*
X18224680Y23693450D01*
X18232080Y23697510D01*
X18240550Y23698870D01*
X18249020Y23697510D01*
X18255370Y23694130D01*
X18258540Y23688030D01*
Y23671770D01*
G01X18285000Y23741200D02*
X18283940Y23735780D01*
X18279710Y23731040D01*
X18273360Y23726980D01*
X18265950Y23724270D01*
X18257480Y23722910D01*
X18249020D01*
X18240550Y23724270D01*
X18233140Y23726980D01*
X18226790Y23731040D01*
X18222560Y23735780D01*
X18221500Y23741200D01*
X18222560Y23746620D01*
X18226790Y23751360D01*
X18233140Y23755420D01*
X18240550Y23758130D01*
X18249020Y23759490D01*
X18257480D01*
X18265950Y23758130D01*
X18273360Y23755420D01*
X18279710Y23751360D01*
X18283940Y23746620D01*
X18285000Y23741200D01*
G01X18221500Y23797080D02*
X18285000D01*
G01X18221500Y23781500D02*
Y23812660D01*
G01X18285000Y23852960D02*
X18221500D01*
X18234200Y23844830D01*
G01X18285000D02*
Y23861090D01*
G01X18844210Y17610000D02*
X18836420Y17611310D01*
X18829610Y17616560D01*
X18823760Y17624430D01*
X18819870Y17633620D01*
X18817920Y17644120D01*
Y17654620D01*
X18819870Y17665120D01*
X18823760Y17674310D01*
X18829610Y17682180D01*
X18836420Y17687430D01*
X18844210Y17688740D01*
X18852000Y17687430D01*
X18858810Y17682180D01*
X18864660Y17674310D01*
X18868550Y17665120D01*
X18870500Y17654620D01*
Y17644120D01*
X18868550Y17633620D01*
X18864660Y17624430D01*
X18858810Y17616560D01*
X18852000Y17611310D01*
X18844210Y17610000D01*
G01X18900560D02*
Y17688740D01*
X18945340Y17610000D01*
Y17688740D01*
G01X18913760Y19410500D02*
X18921550Y19403940D01*
X18930320Y19400000D01*
X18938100D01*
X18945890Y19403940D01*
X18951740Y19410500D01*
X18954660Y19419690D01*
X18952710Y19428870D01*
X18947840Y19436740D01*
X18939080Y19442000D01*
X18927390Y19444620D01*
X18920580Y19449870D01*
X18917660Y19459050D01*
X18919610Y19468240D01*
X18924470Y19474800D01*
X18931290Y19478740D01*
X18938100D01*
X18944920Y19476120D01*
X18950760Y19469550D01*
G01X18983740Y19478740D02*
X18997370Y19400000D01*
X19012950Y19478740D01*
X19028530Y19400000D01*
X19042160Y19478740D01*
G01X19103370Y19400000D02*
Y19478740D01*
X19067350Y19422310D01*
X19116030D01*
G01X18918760Y20415500D02*
X18926550Y20408940D01*
X18935320Y20405000D01*
X18943100D01*
X18950890Y20408940D01*
X18956740Y20415500D01*
X18959660Y20424690D01*
X18957710Y20433870D01*
X18952840Y20441740D01*
X18944080Y20447000D01*
X18932390Y20449620D01*
X18925580Y20454870D01*
X18922660Y20464050D01*
X18924610Y20473240D01*
X18929470Y20479800D01*
X18936290Y20483740D01*
X18943100D01*
X18949920Y20481120D01*
X18955760Y20474550D01*
G01X18988740Y20483740D02*
X19002370Y20405000D01*
X19017950Y20483740D01*
X19033530Y20405000D01*
X19047160Y20483740D01*
G01X19075270Y20420750D02*
X19081110Y20411560D01*
X19088900Y20406310D01*
X19097660Y20405000D01*
X19105450Y20406310D01*
X19113240Y20412870D01*
X19118110Y20420750D01*
X19119080Y20428620D01*
X19117140Y20437810D01*
X19110320Y20444370D01*
X19103510Y20447000D01*
X19094740D01*
G01X19103510D02*
X19109350Y20450930D01*
X19114220Y20457490D01*
X19116160Y20465370D01*
X19114220Y20473240D01*
X19109350Y20479800D01*
X19100580Y20483740D01*
X19091820Y20482430D01*
X19083060Y20477180D01*
G01X18908760Y21350500D02*
X18916550Y21343940D01*
X18925320Y21340000D01*
X18933100D01*
X18940890Y21343940D01*
X18946740Y21350500D01*
X18949660Y21359690D01*
X18947710Y21368870D01*
X18942840Y21376740D01*
X18934080Y21382000D01*
X18922390Y21384620D01*
X18915580Y21389870D01*
X18912660Y21399050D01*
X18914610Y21408240D01*
X18919470Y21414800D01*
X18926290Y21418740D01*
X18933100D01*
X18939920Y21416120D01*
X18945760Y21409550D01*
G01X18978740Y21418740D02*
X18992370Y21340000D01*
X19007950Y21418740D01*
X19023530Y21340000D01*
X19037160Y21418740D01*
G01X19068190Y21405620D02*
X19074030Y21413490D01*
X19080850Y21417430D01*
X19088640Y21418740D01*
X19098370Y21416120D01*
X19105190Y21409550D01*
X19107140Y21401680D01*
X19106160Y21393800D01*
X19102270Y21387240D01*
X19082800Y21374120D01*
X19074030Y21364930D01*
X19068190Y21351810D01*
X19066240Y21340000D01*
X19107140D01*
G01X19679210Y17610000D02*
X19671420Y17611310D01*
X19664610Y17616560D01*
X19658760Y17624430D01*
X19654870Y17633620D01*
X19652920Y17644120D01*
Y17654620D01*
X19654870Y17665120D01*
X19658760Y17674310D01*
X19664610Y17682180D01*
X19671420Y17687430D01*
X19679210Y17688740D01*
X19687000Y17687430D01*
X19693810Y17682180D01*
X19699660Y17674310D01*
X19703550Y17665120D01*
X19705500Y17654620D01*
Y17644120D01*
X19703550Y17633620D01*
X19699660Y17624430D01*
X19693810Y17616560D01*
X19687000Y17611310D01*
X19679210Y17610000D01*
G01X19739450D02*
Y17688740D01*
X19776450D01*
G01X19762820Y17650680D02*
X19739450D01*
G01X19818190Y17610000D02*
Y17688740D01*
X19855190D01*
G01X19841560Y17650680D02*
X19818190D01*
G01X20045500Y18191240D02*
X20038940Y18183450D01*
X20035000Y18174680D01*
Y18166900D01*
X20038940Y18159110D01*
X20045500Y18153260D01*
X20054690Y18150340D01*
X20063870Y18152290D01*
X20071740Y18157160D01*
X20077000Y18165920D01*
X20079620Y18177610D01*
X20084870Y18184420D01*
X20094050Y18187340D01*
X20103240Y18185390D01*
X20109800Y18180530D01*
X20113740Y18173710D01*
Y18166900D01*
X20111120Y18160080D01*
X20104550Y18154240D01*
G01X20113740Y18121260D02*
X20035000Y18107630D01*
X20113740Y18092050D01*
X20035000Y18076470D01*
X20113740Y18062840D01*
G01X20035000Y18013310D02*
X20113740D01*
X20097990Y18024990D01*
G01X20035000D02*
Y18001630D01*
G01X20566000Y19136670D02*
X20536000D01*
Y19123330D01*
G01Y19102090D02*
X20566000D01*
Y19095430D01*
X20564500Y19092760D01*
X20562500Y19090760D01*
X20559500Y19089090D01*
X20556000Y19087760D01*
X20551000Y19087430D01*
X20546000Y19087760D01*
X20542500Y19089090D01*
X20539500Y19090760D01*
X20537500Y19092760D01*
X20536000Y19095430D01*
Y19102090D01*
G01Y19059520D02*
X20566000D01*
X20560000Y19063520D01*
G01X20536000D02*
Y19055520D01*
G01X20395800Y18776770D02*
X20335800D01*
Y18793430D01*
X20338800Y18798770D01*
X20342800Y18802100D01*
X20350800Y18803430D01*
X20358800Y18802100D01*
X20363800Y18798100D01*
X20366800Y18793430D01*
Y18776770D01*
G01Y18793430D02*
X20395800Y18803430D01*
G01Y18850420D02*
X20335800D01*
X20347800Y18842420D01*
G01X20395800D02*
Y18858420D01*
G01X20092910Y23538500D02*
X20125090D01*
Y23500400D01*
X20115430Y23487700D01*
X20104170Y23479230D01*
X20088090Y23475000D01*
X20072000Y23479230D01*
X20060740Y23487700D01*
X20051090Y23500400D01*
X20044650Y23515220D01*
X20041430Y23532150D01*
Y23546970D01*
X20044650Y23559660D01*
X20051090Y23574490D01*
X20060740Y23587180D01*
X20070390Y23595650D01*
X20083260Y23602000D01*
X20094520D01*
X20107390Y23597770D01*
X20117040Y23589300D01*
G01X20190280Y23475000D02*
Y23559660D01*
G01Y23542730D02*
X20198320Y23551200D01*
X20206370Y23557550D01*
X20217630Y23559660D01*
X20225670Y23557550D01*
X20235320Y23551200D01*
G01X20342340Y23475000D02*
X20332690Y23477120D01*
X20323040Y23485580D01*
X20316600Y23500400D01*
X20313380Y23517330D01*
X20316600Y23534270D01*
X20323040Y23549080D01*
X20332690Y23557550D01*
X20342340Y23559660D01*
X20351990Y23557550D01*
X20361640Y23549080D01*
X20368080Y23534270D01*
X20369690Y23517330D01*
X20368080Y23500400D01*
X20361640Y23485580D01*
X20351990Y23477120D01*
X20342340Y23475000D01*
G01X20444530Y23559660D02*
Y23500400D01*
X20450970Y23485580D01*
X20460620Y23477120D01*
X20471880Y23475000D01*
X20483140Y23477120D01*
X20492790Y23485580D01*
X20499230Y23500400D01*
G01Y23475000D02*
Y23559660D01*
G01X20572460Y23432670D02*
Y23559660D01*
G01Y23540620D02*
X20580510Y23551200D01*
X20588550Y23557550D01*
X20601420Y23559660D01*
X20612680Y23557550D01*
X20623940Y23546970D01*
X20628770Y23532150D01*
X20630380Y23517330D01*
X20628770Y23502510D01*
X20623940Y23487700D01*
X20614290Y23479230D01*
X20601420Y23475000D01*
X20590160Y23477120D01*
X20578900Y23483460D01*
X20572460Y23491930D01*
G01X20823500Y23475000D02*
Y23602000D01*
X20897500Y23475000D01*
Y23602000D01*
G01X20965910Y23532150D02*
X21017390D01*
X21012560Y23546970D01*
X21004520Y23555430D01*
X20993260Y23559660D01*
X20982000Y23557550D01*
X20972340Y23551200D01*
X20965910Y23536380D01*
X20962690Y23523680D01*
Y23510980D01*
X20965910Y23498280D01*
X20973950Y23485580D01*
X20983610Y23477120D01*
X20994870Y23475000D01*
X21006130Y23479230D01*
X21017390Y23491930D01*
G01X21095450Y23489810D02*
X21103490Y23481350D01*
X21114750Y23475000D01*
X21124410D01*
X21134060Y23479230D01*
X21140490Y23485580D01*
X21143710Y23494050D01*
X21142100Y23506750D01*
X21135670Y23513100D01*
X21106710Y23525800D01*
X21100280Y23540620D01*
X21103490Y23551200D01*
X21109930Y23557550D01*
X21119580Y23559660D01*
X21129230Y23557550D01*
X21138880Y23551200D01*
G01X21224990Y23532150D02*
X21276470D01*
X21271640Y23546970D01*
X21263600Y23555430D01*
X21252340Y23559660D01*
X21241080Y23557550D01*
X21231420Y23551200D01*
X21224990Y23536380D01*
X21221770Y23523680D01*
Y23510980D01*
X21224990Y23498280D01*
X21233030Y23485580D01*
X21242690Y23477120D01*
X21253950Y23475000D01*
X21265210Y23479230D01*
X21276470Y23491930D01*
G01X21378660Y23475000D02*
Y23602000D01*
X21359360Y23576600D01*
G01Y23475000D02*
X21397960D01*
G01X21508200Y23602000D02*
X21495330Y23597770D01*
X21485680Y23587180D01*
X21479240Y23574490D01*
X21474420Y23557550D01*
X21472810Y23538500D01*
X21474420Y23519450D01*
X21479240Y23502510D01*
X21485680Y23489810D01*
X21495330Y23479230D01*
X21508200Y23475000D01*
X21521070Y23479230D01*
X21530720Y23489810D01*
X21537160Y23502510D01*
X21541980Y23519450D01*
X21543590Y23538500D01*
X21541980Y23557550D01*
X21537160Y23574490D01*
X21530720Y23587180D01*
X21521070Y23597770D01*
X21508200Y23602000D01*
G01X20052690Y23345830D02*
X20062350Y23358530D01*
X20073610Y23364880D01*
X20086480Y23367000D01*
X20102560Y23362770D01*
X20113830Y23352180D01*
X20117040Y23339490D01*
X20115430Y23326780D01*
X20109000Y23316200D01*
X20076830Y23295030D01*
X20062350Y23280220D01*
X20052690Y23259050D01*
X20049480Y23240000D01*
X20117040D01*
G01X20212800Y23367000D02*
X20199930Y23362770D01*
X20190280Y23352180D01*
X20183840Y23339490D01*
X20179020Y23322550D01*
X20177410Y23303500D01*
X20179020Y23284450D01*
X20183840Y23267510D01*
X20190280Y23254810D01*
X20199930Y23244230D01*
X20212800Y23240000D01*
X20225670Y23244230D01*
X20235320Y23254810D01*
X20241760Y23267510D01*
X20246580Y23284450D01*
X20248190Y23303500D01*
X20246580Y23322550D01*
X20241760Y23339490D01*
X20235320Y23352180D01*
X20225670Y23362770D01*
X20212800Y23367000D01*
G01X20311770Y23345830D02*
X20321430Y23358530D01*
X20332690Y23364880D01*
X20345560Y23367000D01*
X20361640Y23362770D01*
X20372910Y23352180D01*
X20376120Y23339490D01*
X20374510Y23326780D01*
X20368080Y23316200D01*
X20335910Y23295030D01*
X20321430Y23280220D01*
X20311770Y23259050D01*
X20308560Y23240000D01*
X20376120D01*
G01X20471880D02*
Y23367000D01*
X20452580Y23341600D01*
G01Y23240000D02*
X20491180D01*
G01X20580510Y23282330D02*
X20622330D01*
G01X20700390Y23345830D02*
X20710050Y23358530D01*
X20721310Y23364880D01*
X20734180Y23367000D01*
X20750260Y23362770D01*
X20761530Y23352180D01*
X20764740Y23339490D01*
X20763130Y23326780D01*
X20756700Y23316200D01*
X20724530Y23295030D01*
X20710050Y23280220D01*
X20700390Y23259050D01*
X20697180Y23240000D01*
X20764740D01*
G01X20829930Y23345830D02*
X20839590Y23358530D01*
X20850850Y23364880D01*
X20863720Y23367000D01*
X20879800Y23362770D01*
X20891070Y23352180D01*
X20894280Y23339490D01*
X20892670Y23326780D01*
X20886240Y23316200D01*
X20854070Y23295030D01*
X20839590Y23280220D01*
X20829930Y23259050D01*
X20826720Y23240000D01*
X20894280D01*
G01X20046430Y24135000D02*
Y24262000D01*
X20088260Y24156170D01*
X20130090Y24262000D01*
Y24135000D01*
G01X20190450Y24219660D02*
Y24160400D01*
X20196890Y24145580D01*
X20206540Y24137120D01*
X20217800Y24135000D01*
X20229060Y24137120D01*
X20238710Y24145580D01*
X20245150Y24160400D01*
G01Y24135000D02*
Y24219660D01*
G01X20347340Y24135000D02*
Y24262000D01*
G01X20476880D02*
Y24135000D01*
G01X20454360Y24219660D02*
X20499400D01*
G01X20606420D02*
Y24135000D01*
G01Y24253530D02*
X20603200Y24255650D01*
Y24259880D01*
X20606420Y24262000D01*
X20609640Y24259880D01*
Y24255650D01*
X20606420Y24253530D01*
G01X20705390Y24135000D02*
Y24262000D01*
X20766530D01*
G01X20744000Y24200620D02*
X20705390D01*
G01X20831720Y24135000D02*
X20899280Y24262000D01*
G01X20831720D02*
X20899280Y24135000D01*
G01X20946780Y24092670D02*
X21043300D01*
G01X21097230Y24135000D02*
Y24219660D01*
G01Y24198500D02*
X21103670Y24209080D01*
X21113320Y24217550D01*
X21126190Y24219660D01*
X21137450Y24217550D01*
X21147100Y24209080D01*
X21151930Y24194270D01*
Y24135000D01*
G01X21229990Y24192150D02*
X21281470D01*
X21276640Y24206970D01*
X21268600Y24215430D01*
X21257340Y24219660D01*
X21246080Y24217550D01*
X21236420Y24211200D01*
X21229990Y24196380D01*
X21226770Y24183680D01*
Y24170980D01*
X21229990Y24158280D01*
X21238030Y24145580D01*
X21247690Y24137120D01*
X21258950Y24135000D01*
X21270210Y24139230D01*
X21281470Y24151930D01*
G01X21359530Y24149810D02*
X21367570Y24141350D01*
X21378830Y24135000D01*
X21388490D01*
X21398140Y24139230D01*
X21404570Y24145580D01*
X21407790Y24154050D01*
X21406180Y24166750D01*
X21399750Y24173100D01*
X21370790Y24185800D01*
X21364360Y24200620D01*
X21367570Y24211200D01*
X21374010Y24217550D01*
X21383660Y24219660D01*
X21393310Y24217550D01*
X21402960Y24211200D01*
G01X21489070Y24192150D02*
X21540550D01*
X21535720Y24206970D01*
X21527680Y24215430D01*
X21516420Y24219660D01*
X21505160Y24217550D01*
X21495500Y24211200D01*
X21489070Y24196380D01*
X21485850Y24183680D01*
Y24170980D01*
X21489070Y24158280D01*
X21497110Y24145580D01*
X21506770Y24137120D01*
X21518030Y24135000D01*
X21529290Y24139230D01*
X21540550Y24151930D01*
G01X21642740Y24135000D02*
Y24262000D01*
X21623440Y24236600D01*
G01Y24135000D02*
X21662040D01*
G01X21772280Y24262000D02*
X21759410Y24257770D01*
X21749760Y24247180D01*
X21743320Y24234490D01*
X21738500Y24217550D01*
X21736890Y24198500D01*
X21738500Y24179450D01*
X21743320Y24162510D01*
X21749760Y24149810D01*
X21759410Y24139230D01*
X21772280Y24135000D01*
X21785150Y24139230D01*
X21794800Y24149810D01*
X21801240Y24162510D01*
X21806060Y24179450D01*
X21807670Y24198500D01*
X21806060Y24217550D01*
X21801240Y24234490D01*
X21794800Y24247180D01*
X21785150Y24257770D01*
X21772280Y24262000D01*
G01X21853560Y24092670D02*
X21950080D01*
G01X22000790Y24240830D02*
X22010450Y24253530D01*
X22021710Y24259880D01*
X22034580Y24262000D01*
X22050660Y24257770D01*
X22061930Y24247180D01*
X22065140Y24234490D01*
X22063530Y24221780D01*
X22057100Y24211200D01*
X22024930Y24190030D01*
X22010450Y24175220D01*
X22000790Y24154050D01*
X21997580Y24135000D01*
X22065140D01*
G01X22160900D02*
Y24262000D01*
X22141600Y24236600D01*
G01Y24135000D02*
X22180200D01*
G01X22259870Y24240830D02*
X22269530Y24253530D01*
X22280790Y24259880D01*
X22293660Y24262000D01*
X22309740Y24257770D01*
X22321010Y24247180D01*
X22324220Y24234490D01*
X22322610Y24221780D01*
X22316180Y24211200D01*
X22284010Y24190030D01*
X22269530Y24175220D01*
X22259870Y24154050D01*
X22256660Y24135000D01*
X22324220D01*
G01X22389410Y24240830D02*
X22399070Y24253530D01*
X22410330Y24259880D01*
X22423200Y24262000D01*
X22439280Y24257770D01*
X22450550Y24247180D01*
X22453760Y24234490D01*
X22452150Y24221780D01*
X22445720Y24211200D01*
X22413550Y24190030D01*
X22399070Y24175220D01*
X22389410Y24154050D01*
X22386200Y24135000D01*
X22453760D01*
G01X20046090Y23910000D02*
Y24037000D01*
X20084690D01*
X20097560Y24030650D01*
X20107220Y24015830D01*
X20110430Y23998900D01*
X20107220Y23981970D01*
X20099170Y23969270D01*
X20084690Y23962910D01*
X20046090D01*
G01X20207800Y23910000D02*
X20198150Y23912120D01*
X20188500Y23920580D01*
X20182060Y23935400D01*
X20178840Y23952330D01*
X20182060Y23969270D01*
X20188500Y23984080D01*
X20198150Y23992550D01*
X20207800Y23994660D01*
X20217450Y23992550D01*
X20227100Y23984080D01*
X20233540Y23969270D01*
X20235150Y23952330D01*
X20233540Y23935400D01*
X20227100Y23920580D01*
X20217450Y23912120D01*
X20207800Y23910000D01*
G01X20337340D02*
Y24037000D01*
G01X20466880Y23994660D02*
Y23910000D01*
G01Y24028530D02*
X20463660Y24030650D01*
Y24034880D01*
X20466880Y24037000D01*
X20470100Y24034880D01*
Y24030650D01*
X20466880Y24028530D01*
G01X20596420Y24037000D02*
Y23910000D01*
G01X20573900Y23994660D02*
X20618940D01*
G01X20701830Y23967150D02*
X20753310D01*
X20748480Y23981970D01*
X20740440Y23990430D01*
X20729180Y23994660D01*
X20717920Y23992550D01*
X20708260Y23986200D01*
X20701830Y23971380D01*
X20698610Y23958680D01*
Y23945980D01*
X20701830Y23933280D01*
X20709870Y23920580D01*
X20719530Y23912120D01*
X20730790Y23910000D01*
X20742050Y23914230D01*
X20753310Y23926930D01*
G01X20881240Y23984080D02*
X20869980Y23992550D01*
X20860330Y23994660D01*
X20847460Y23990430D01*
X20837800Y23981970D01*
X20831370Y23967150D01*
X20829760Y23952330D01*
X20831370Y23937510D01*
X20837800Y23924810D01*
X20847460Y23914230D01*
X20860330Y23910000D01*
X20871590Y23914230D01*
X20881240Y23922700D01*
G01X20957690Y23910000D02*
Y23994660D01*
G01Y23973500D02*
X20964130Y23984080D01*
X20973780Y23992550D01*
X20986650Y23994660D01*
X20997910Y23992550D01*
X21007560Y23984080D01*
X21012390Y23969270D01*
Y23910000D01*
G01X21114580Y23994660D02*
Y23910000D01*
G01Y24028530D02*
X21111360Y24030650D01*
Y24034880D01*
X21114580Y24037000D01*
X21117800Y24034880D01*
Y24030650D01*
X21114580Y24028530D01*
G01X21269860Y23984080D02*
X21258600Y23992550D01*
X21248950Y23994660D01*
X21236080Y23990430D01*
X21226420Y23981970D01*
X21219990Y23967150D01*
X21218380Y23952330D01*
X21219990Y23937510D01*
X21226420Y23924810D01*
X21236080Y23914230D01*
X21248950Y23910000D01*
X21260210Y23914230D01*
X21269860Y23922700D01*
G01X21373660Y23910000D02*
X21364010Y23912120D01*
X21354360Y23920580D01*
X21347920Y23935400D01*
X21344700Y23952330D01*
X21347920Y23969270D01*
X21354360Y23984080D01*
X21364010Y23992550D01*
X21373660Y23994660D01*
X21383310Y23992550D01*
X21392960Y23984080D01*
X21399400Y23969270D01*
X21401010Y23952330D01*
X21399400Y23935400D01*
X21392960Y23920580D01*
X21383310Y23912120D01*
X21373660Y23910000D01*
G01X21661700Y24037000D02*
Y23910000D01*
G01Y23929050D02*
X21655260Y23918460D01*
X21645610Y23912120D01*
X21634350Y23910000D01*
X21621480Y23914230D01*
X21611830Y23924810D01*
X21605390Y23937510D01*
X21603780Y23952330D01*
X21605390Y23967150D01*
X21611830Y23979850D01*
X21621480Y23990430D01*
X21634350Y23994660D01*
X21645610Y23992550D01*
X21653650Y23988320D01*
X21661700Y23979850D01*
G01X21762280Y23994660D02*
Y23910000D01*
G01Y24028530D02*
X21759060Y24030650D01*
Y24034880D01*
X21762280Y24037000D01*
X21765500Y24034880D01*
Y24030650D01*
X21762280Y24028530D01*
G01X22021360Y24037000D02*
Y23910000D01*
G01X21984360Y24037000D02*
X22058360D01*
G01X22150900Y23910000D02*
X22141250Y23912120D01*
X22131600Y23920580D01*
X22125160Y23935400D01*
X22121940Y23952330D01*
X22125160Y23969270D01*
X22131600Y23984080D01*
X22141250Y23992550D01*
X22150900Y23994660D01*
X22160550Y23992550D01*
X22170200Y23984080D01*
X22176640Y23969270D01*
X22178250Y23952330D01*
X22176640Y23935400D01*
X22170200Y23920580D01*
X22160550Y23912120D01*
X22150900Y23910000D01*
G01X22257920D02*
Y23994660D01*
G01Y23977730D02*
X22265960Y23986200D01*
X22274010Y23992550D01*
X22285270Y23994660D01*
X22293310Y23992550D01*
X22302960Y23986200D01*
G01X22409980Y23994660D02*
Y23910000D01*
G01Y24028530D02*
X22406760Y24030650D01*
Y24034880D01*
X22409980Y24037000D01*
X22413200Y24034880D01*
Y24030650D01*
X22409980Y24028530D01*
G01X22512170Y23910000D02*
Y23994660D01*
G01Y23973500D02*
X22518610Y23984080D01*
X22528260Y23992550D01*
X22541130Y23994660D01*
X22552390Y23992550D01*
X22562040Y23984080D01*
X22566870Y23969270D01*
Y23910000D01*
G01X22669060D02*
X22659410Y23912120D01*
X22649760Y23920580D01*
X22643320Y23935400D01*
X22640100Y23952330D01*
X22643320Y23969270D01*
X22649760Y23984080D01*
X22659410Y23992550D01*
X22669060Y23994660D01*
X22678710Y23992550D01*
X22688360Y23984080D01*
X22694800Y23969270D01*
X22696410Y23952330D01*
X22694800Y23935400D01*
X22688360Y23920580D01*
X22678710Y23912120D01*
X22669060Y23910000D01*
G01X20118650Y23811420D02*
X20109000Y23817770D01*
X20097740Y23822000D01*
X20084870D01*
X20070390Y23815650D01*
X20059130Y23805070D01*
X20051090Y23792370D01*
X20044650Y23771200D01*
X20043040Y23752150D01*
X20046260Y23733100D01*
X20051090Y23720400D01*
X20060740Y23707700D01*
X20072000Y23699230D01*
X20083260Y23695000D01*
X20094520D01*
X20105780Y23699230D01*
X20115430Y23705580D01*
X20123480Y23714050D01*
G01X20212800Y23695000D02*
X20203150Y23697120D01*
X20193500Y23705580D01*
X20187060Y23720400D01*
X20183840Y23737330D01*
X20187060Y23754270D01*
X20193500Y23769080D01*
X20203150Y23777550D01*
X20212800Y23779660D01*
X20222450Y23777550D01*
X20232100Y23769080D01*
X20238540Y23754270D01*
X20240150Y23737330D01*
X20238540Y23720400D01*
X20232100Y23705580D01*
X20222450Y23697120D01*
X20212800Y23695000D01*
G01X20371300Y23822000D02*
Y23695000D01*
G01Y23714050D02*
X20364860Y23703460D01*
X20355210Y23697120D01*
X20343950Y23695000D01*
X20331080Y23699230D01*
X20321430Y23709810D01*
X20314990Y23722510D01*
X20313380Y23737330D01*
X20314990Y23752150D01*
X20321430Y23764850D01*
X20331080Y23775430D01*
X20343950Y23779660D01*
X20355210Y23777550D01*
X20363250Y23773320D01*
X20371300Y23764850D01*
G01X20447750Y23752150D02*
X20499230D01*
X20494400Y23766970D01*
X20486360Y23775430D01*
X20475100Y23779660D01*
X20463840Y23777550D01*
X20454180Y23771200D01*
X20447750Y23756380D01*
X20444530Y23743680D01*
Y23730980D01*
X20447750Y23718280D01*
X20455790Y23705580D01*
X20465450Y23697120D01*
X20476710Y23695000D01*
X20487970Y23699230D01*
X20499230Y23711930D01*
G01X20577290Y23709810D02*
X20585330Y23701350D01*
X20596590Y23695000D01*
X20606250D01*
X20615900Y23699230D01*
X20622330Y23705580D01*
X20625550Y23714050D01*
X20623940Y23726750D01*
X20617510Y23733100D01*
X20588550Y23745800D01*
X20582120Y23760620D01*
X20585330Y23771200D01*
X20591770Y23777550D01*
X20601420Y23779660D01*
X20611070Y23777550D01*
X20620720Y23771200D01*
G01X20730960Y23779660D02*
Y23695000D01*
G01Y23813530D02*
X20727740Y23815650D01*
Y23819880D01*
X20730960Y23822000D01*
X20734180Y23819880D01*
Y23815650D01*
X20730960Y23813530D01*
G01X20837980Y23663250D02*
X20849240Y23654780D01*
X20862110Y23652670D01*
X20873370Y23654780D01*
X20883020Y23665370D01*
X20889460Y23680180D01*
Y23779660D01*
G01Y23762730D02*
X20883020Y23771200D01*
X20873370Y23777550D01*
X20862110Y23779660D01*
X20849240Y23775430D01*
X20841200Y23766970D01*
X20834760Y23752150D01*
X20831540Y23737330D01*
X20833150Y23724630D01*
X20839590Y23709810D01*
X20849240Y23699230D01*
X20862110Y23695000D01*
X20871760Y23697120D01*
X20883020Y23705580D01*
X20889460Y23714050D01*
G01X20962690Y23695000D02*
Y23779660D01*
G01Y23758500D02*
X20969130Y23769080D01*
X20978780Y23777550D01*
X20991650Y23779660D01*
X21002910Y23777550D01*
X21012560Y23769080D01*
X21017390Y23754270D01*
Y23695000D01*
G01X21207290D02*
Y23822000D01*
X21249120Y23716170D01*
X21290950Y23822000D01*
Y23695000D01*
G01X21354530Y23752150D02*
X21406010D01*
X21401180Y23766970D01*
X21393140Y23775430D01*
X21381880Y23779660D01*
X21370620Y23777550D01*
X21360960Y23771200D01*
X21354530Y23756380D01*
X21351310Y23743680D01*
Y23730980D01*
X21354530Y23718280D01*
X21362570Y23705580D01*
X21372230Y23697120D01*
X21383490Y23695000D01*
X21394750Y23699230D01*
X21406010Y23711930D01*
G01X21508200Y23822000D02*
Y23695000D01*
G01X21485680Y23779660D02*
X21530720D01*
G01X21610390Y23695000D02*
Y23822000D01*
G01Y23760620D02*
X21618440Y23771200D01*
X21626480Y23777550D01*
X21639350Y23779660D01*
X21649000Y23777550D01*
X21660260Y23769080D01*
X21665090Y23756380D01*
Y23695000D01*
G01X21767280D02*
X21757630Y23697120D01*
X21747980Y23705580D01*
X21741540Y23720400D01*
X21738320Y23737330D01*
X21741540Y23754270D01*
X21747980Y23769080D01*
X21757630Y23777550D01*
X21767280Y23779660D01*
X21776930Y23777550D01*
X21786580Y23769080D01*
X21793020Y23754270D01*
X21794630Y23737330D01*
X21793020Y23720400D01*
X21786580Y23705580D01*
X21776930Y23697120D01*
X21767280Y23695000D01*
G01X21925780Y23822000D02*
Y23695000D01*
G01Y23714050D02*
X21919340Y23703460D01*
X21909690Y23697120D01*
X21898430Y23695000D01*
X21885560Y23699230D01*
X21875910Y23709810D01*
X21869470Y23722510D01*
X21867860Y23737330D01*
X21869470Y23752150D01*
X21875910Y23764850D01*
X21885560Y23775430D01*
X21898430Y23779660D01*
X21909690Y23777550D01*
X21917730Y23773320D01*
X21925780Y23764850D01*
G01X22002230Y23709810D02*
X22010270Y23701350D01*
X22021530Y23695000D01*
X22031190D01*
X22040840Y23699230D01*
X22047270Y23705580D01*
X22050490Y23714050D01*
X22048880Y23726750D01*
X22042450Y23733100D01*
X22013490Y23745800D01*
X22007060Y23760620D01*
X22010270Y23771200D01*
X22016710Y23777550D01*
X22026360Y23779660D01*
X22036010Y23777550D01*
X22045660Y23771200D01*
G01X22314400Y23695000D02*
Y23779660D01*
G01Y23764850D02*
X22307960Y23773320D01*
X22298310Y23777550D01*
X22287050Y23779660D01*
X22275790Y23775430D01*
X22266140Y23766970D01*
X22259700Y23754270D01*
X22256480Y23737330D01*
X22259700Y23720400D01*
X22266140Y23707700D01*
X22275790Y23699230D01*
X22287050Y23695000D01*
X22298310Y23697120D01*
X22307960Y23703460D01*
X22314400Y23711930D01*
G01X22387630Y23695000D02*
Y23779660D01*
G01Y23758500D02*
X22394070Y23769080D01*
X22403720Y23777550D01*
X22416590Y23779660D01*
X22427850Y23777550D01*
X22437500Y23769080D01*
X22442330Y23754270D01*
Y23695000D01*
G01X22573480Y23822000D02*
Y23695000D01*
G01Y23714050D02*
X22567040Y23703460D01*
X22557390Y23697120D01*
X22546130Y23695000D01*
X22533260Y23699230D01*
X22523610Y23709810D01*
X22517170Y23722510D01*
X22515560Y23737330D01*
X22517170Y23752150D01*
X22523610Y23764850D01*
X22533260Y23775430D01*
X22546130Y23779660D01*
X22557390Y23777550D01*
X22565430Y23773320D01*
X22573480Y23764850D01*
G01X22803600Y23822000D02*
Y23695000D01*
G01X22766600Y23822000D02*
X22840600D01*
G01X22933140Y23695000D02*
X22923490Y23697120D01*
X22913840Y23705580D01*
X22907400Y23720400D01*
X22904180Y23737330D01*
X22907400Y23754270D01*
X22913840Y23769080D01*
X22923490Y23777550D01*
X22933140Y23779660D01*
X22942790Y23777550D01*
X22952440Y23769080D01*
X22958880Y23754270D01*
X22960490Y23737330D01*
X22958880Y23720400D01*
X22952440Y23705580D01*
X22942790Y23697120D01*
X22933140Y23695000D01*
G01X23062680D02*
X23053030Y23697120D01*
X23043380Y23705580D01*
X23036940Y23720400D01*
X23033720Y23737330D01*
X23036940Y23754270D01*
X23043380Y23769080D01*
X23053030Y23777550D01*
X23062680Y23779660D01*
X23072330Y23777550D01*
X23081980Y23769080D01*
X23088420Y23754270D01*
X23090030Y23737330D01*
X23088420Y23720400D01*
X23081980Y23705580D01*
X23072330Y23697120D01*
X23062680Y23695000D01*
G01X23192220D02*
Y23822000D01*
G01X23297630Y23709810D02*
X23305670Y23701350D01*
X23316930Y23695000D01*
X23326590D01*
X23336240Y23699230D01*
X23342670Y23705580D01*
X23345890Y23714050D01*
X23344280Y23726750D01*
X23337850Y23733100D01*
X23308890Y23745800D01*
X23302460Y23760620D01*
X23305670Y23771200D01*
X23312110Y23777550D01*
X23321760Y23779660D01*
X23331410Y23777550D01*
X23341060Y23771200D01*
G01X21414740Y22605750D02*
X21419610Y22597870D01*
X21425450Y22592620D01*
X21432260Y22590000D01*
X21440050Y22592620D01*
X21445890Y22597870D01*
X21451740Y22605750D01*
X21453680Y22616250D01*
Y22668740D01*
G01X21512950Y22590000D02*
Y22668740D01*
X21501270Y22652990D01*
G01Y22590000D02*
X21524630D01*
G01X23472820Y18980630D02*
X23468880Y18974790D01*
X23466260Y18967970D01*
Y18960180D01*
X23470200Y18951420D01*
X23476760Y18944610D01*
X23484630Y18939740D01*
X23497760Y18935840D01*
X23509570Y18934870D01*
X23521380Y18936820D01*
X23529250Y18939740D01*
X23537130Y18945580D01*
X23542380Y18952390D01*
X23545000Y18959210D01*
Y18966030D01*
X23542380Y18972840D01*
X23538440Y18978680D01*
X23533190Y18983550D01*
G01X23545000Y19037950D02*
X23543690Y19030160D01*
X23538440Y19023350D01*
X23530570Y19017500D01*
X23521380Y19013610D01*
X23510880Y19011660D01*
X23500380D01*
X23489880Y19013610D01*
X23480690Y19017500D01*
X23472820Y19023350D01*
X23467570Y19030160D01*
X23466260Y19037950D01*
X23467570Y19045740D01*
X23472820Y19052550D01*
X23480690Y19058400D01*
X23489880Y19062290D01*
X23500380Y19064240D01*
X23510880D01*
X23521380Y19062290D01*
X23530570Y19058400D01*
X23538440Y19052550D01*
X23543690Y19045740D01*
X23545000Y19037950D01*
G01Y19094300D02*
X23466260D01*
X23545000Y19139080D01*
X23466260D01*
G01X23545000Y19173040D02*
X23466260D01*
X23545000Y19217820D01*
X23466260D01*
G01X23529250Y19252750D02*
X23538440Y19258590D01*
X23543690Y19266380D01*
X23545000Y19275140D01*
X23543690Y19282930D01*
X23537130Y19290720D01*
X23529250Y19295590D01*
X23521380Y19296560D01*
X23512190Y19294620D01*
X23505630Y19287800D01*
X23503000Y19280990D01*
Y19272220D01*
G01Y19280990D02*
X23499070Y19286830D01*
X23492510Y19291700D01*
X23484630Y19293640D01*
X23476760Y19291700D01*
X23470200Y19286830D01*
X23466260Y19278060D01*
X23467570Y19269300D01*
X23472820Y19260540D01*
G01X22880740Y22594750D02*
X22885610Y22586870D01*
X22891450Y22581620D01*
X22898260Y22579000D01*
X22906050Y22581620D01*
X22911890Y22586870D01*
X22917740Y22594750D01*
X22919680Y22605250D01*
Y22657740D01*
G01X22960450Y22644620D02*
X22966290Y22652490D01*
X22973110Y22656430D01*
X22980900Y22657740D01*
X22990630Y22655120D01*
X22997450Y22648550D01*
X22999400Y22640680D01*
X22998420Y22632800D01*
X22994530Y22626240D01*
X22975060Y22613120D01*
X22966290Y22603930D01*
X22960450Y22590810D01*
X22958500Y22579000D01*
X22999400D01*
G01X24807180Y22824370D02*
X24811120Y22830210D01*
X24813740Y22837030D01*
Y22844820D01*
X24809800Y22853580D01*
X24803240Y22860390D01*
X24795370Y22865260D01*
X24782240Y22869160D01*
X24770430Y22870130D01*
X24758620Y22868180D01*
X24750750Y22865260D01*
X24742870Y22859420D01*
X24737620Y22852610D01*
X24735000Y22845790D01*
Y22838970D01*
X24737620Y22832160D01*
X24741560Y22826320D01*
X24746810Y22821450D01*
G01X24735000Y22767050D02*
X24736310Y22774840D01*
X24741560Y22781650D01*
X24749430Y22787500D01*
X24758620Y22791390D01*
X24769120Y22793340D01*
X24779620D01*
X24790120Y22791390D01*
X24799310Y22787500D01*
X24807180Y22781650D01*
X24812430Y22774840D01*
X24813740Y22767050D01*
X24812430Y22759260D01*
X24807180Y22752450D01*
X24799310Y22746600D01*
X24790120Y22742710D01*
X24779620Y22740760D01*
X24769120D01*
X24758620Y22742710D01*
X24749430Y22746600D01*
X24741560Y22752450D01*
X24736310Y22759260D01*
X24735000Y22767050D01*
G01Y22710700D02*
X24813740D01*
X24735000Y22665920D01*
X24813740D01*
G01X24735000Y22631960D02*
X24813740D01*
X24735000Y22587180D01*
X24813740D01*
G01X24800620Y22549330D02*
X24808490Y22543490D01*
X24812430Y22536670D01*
X24813740Y22528880D01*
X24811120Y22519150D01*
X24804550Y22512330D01*
X24796680Y22510380D01*
X24788800Y22511360D01*
X24782240Y22515250D01*
X24769120Y22534720D01*
X24759930Y22543490D01*
X24746810Y22549330D01*
X24735000Y22551280D01*
Y22510380D01*
G01X25857180Y18489370D02*
X25861120Y18495210D01*
X25863740Y18502030D01*
Y18509820D01*
X25859800Y18518580D01*
X25853240Y18525390D01*
X25845370Y18530260D01*
X25832240Y18534160D01*
X25820430Y18535130D01*
X25808620Y18533180D01*
X25800750Y18530260D01*
X25792870Y18524420D01*
X25787620Y18517610D01*
X25785000Y18510790D01*
Y18503970D01*
X25787620Y18497160D01*
X25791560Y18491320D01*
X25796810Y18486450D01*
G01X25785000Y18432050D02*
X25863740D01*
X25847990Y18443730D01*
G01X25785000D02*
Y18420370D01*
G01X25824200Y20303230D02*
X25884200D01*
Y20286570D01*
X25881200Y20281230D01*
X25877200Y20277900D01*
X25869200Y20276570D01*
X25861200Y20277900D01*
X25856200Y20281900D01*
X25853200Y20286570D01*
Y20303230D01*
G01Y20286570D02*
X25824200Y20276570D01*
G01X25874200Y20242250D02*
X25880200Y20238250D01*
X25883200Y20233580D01*
X25884200Y20228250D01*
X25882200Y20221580D01*
X25877200Y20216910D01*
X25871200Y20215580D01*
X25865200Y20216250D01*
X25860200Y20218910D01*
X25850200Y20232250D01*
X25843200Y20238250D01*
X25833200Y20242250D01*
X25824200Y20243580D01*
Y20215580D01*
G01X25290630Y20167180D02*
X25284790Y20171120D01*
X25277970Y20173740D01*
X25270180D01*
X25261420Y20169800D01*
X25254610Y20163240D01*
X25249740Y20155370D01*
X25245840Y20142240D01*
X25244870Y20130430D01*
X25246820Y20118620D01*
X25249740Y20110750D01*
X25255580Y20102870D01*
X25262390Y20097620D01*
X25269210Y20095000D01*
X25276030D01*
X25282840Y20097620D01*
X25288680Y20101560D01*
X25293550Y20106810D01*
G01X25329450Y20160620D02*
X25335290Y20168490D01*
X25342110Y20172430D01*
X25349900Y20173740D01*
X25359630Y20171120D01*
X25366450Y20164550D01*
X25368400Y20156680D01*
X25367420Y20148800D01*
X25363530Y20142240D01*
X25344060Y20129120D01*
X25335290Y20119930D01*
X25329450Y20106810D01*
X25327500Y20095000D01*
X25368400D01*
G01X26357790Y18678740D02*
Y18622310D01*
X26361680Y18610500D01*
X26369470Y18602620D01*
X26379210Y18600000D01*
X26388950Y18602620D01*
X26396740Y18610500D01*
X26400630Y18622310D01*
Y18678740D01*
G01X26457950Y18600000D02*
Y18678740D01*
X26446270Y18662990D01*
G01Y18600000D02*
X26469630D01*
G01X26416670Y19780000D02*
Y19720000D01*
X26443330D01*
G01X26490320D02*
Y19780000D01*
X26482320Y19768000D01*
G01Y19720000D02*
X26498320D01*
G01X26162790Y19495000D02*
Y19573740D01*
X26182260D01*
X26190050Y19569800D01*
X26195890Y19564550D01*
X26200760Y19556680D01*
X26204660Y19547490D01*
X26205630Y19534370D01*
X26204660Y19521250D01*
X26200760Y19512060D01*
X26195890Y19504180D01*
X26190050Y19498940D01*
X26182260Y19495000D01*
X26162790D01*
G01X26262950D02*
Y19573740D01*
X26251270Y19557990D01*
G01Y19495000D02*
X26274630D01*
G01X26059200Y20378230D02*
X26119200D01*
Y20361570D01*
X26116200Y20356230D01*
X26112200Y20352900D01*
X26104200Y20351570D01*
X26096200Y20352900D01*
X26091200Y20356900D01*
X26088200Y20361570D01*
Y20378230D01*
G01Y20361570D02*
X26059200Y20351570D01*
G01X26071200Y20319250D02*
X26064200Y20315250D01*
X26060200Y20309910D01*
X26059200Y20303910D01*
X26060200Y20298580D01*
X26065200Y20293250D01*
X26071200Y20289910D01*
X26077200Y20289250D01*
X26084200Y20290580D01*
X26089200Y20295250D01*
X26091200Y20299910D01*
Y20305910D01*
G01Y20299910D02*
X26094200Y20295910D01*
X26099200Y20292580D01*
X26105200Y20291250D01*
X26111200Y20292580D01*
X26116200Y20295910D01*
X26119200Y20301910D01*
X26118200Y20307910D01*
X26114200Y20313910D01*
G01X26727180Y20484370D02*
X26731120Y20490210D01*
X26733740Y20497030D01*
Y20504820D01*
X26729800Y20513580D01*
X26723240Y20520390D01*
X26715370Y20525260D01*
X26702240Y20529160D01*
X26690430Y20530130D01*
X26678620Y20528180D01*
X26670750Y20525260D01*
X26662870Y20519420D01*
X26657620Y20512610D01*
X26655000Y20505790D01*
Y20498970D01*
X26657620Y20492160D01*
X26661560Y20486320D01*
X26666810Y20481450D01*
G01X26655000Y20427050D02*
X26656310Y20434840D01*
X26661560Y20441650D01*
X26669430Y20447500D01*
X26678620Y20451390D01*
X26689120Y20453340D01*
X26699620D01*
X26710120Y20451390D01*
X26719310Y20447500D01*
X26727180Y20441650D01*
X26732430Y20434840D01*
X26733740Y20427050D01*
X26732430Y20419260D01*
X26727180Y20412450D01*
X26719310Y20406600D01*
X26710120Y20402710D01*
X26699620Y20400760D01*
X26689120D01*
X26678620Y20402710D01*
X26669430Y20406600D01*
X26661560Y20412450D01*
X26656310Y20419260D01*
X26655000Y20427050D01*
G01Y20370700D02*
X26733740D01*
X26655000Y20325920D01*
X26733740D01*
G01X26655000Y20291960D02*
X26733740D01*
X26655000Y20247180D01*
X26733740D01*
G01X26655000Y20179150D02*
X26733740D01*
X26677310Y20215170D01*
Y20166490D01*
M02*
