G04 ================== begin FILE IDENTIFICATION RECORD ==================*
G04 Layout Name:  C:/temp/MultiFx/allegro/MULTIFX.brd*
G04 Film Name:    SOLDERMASK_TOP*
G04 File Format:  Gerber RS274X*
G04 File Origin:  Cadence Allegro 17.2-S078*
G04 Origin Date:  Thu Feb 24 11:19:01 2022*
G04 *
G04 Layer:  VIA CLASS/SOLDERMASK_TOP*
G04 Layer:  PIN/SOLDERMASK_TOP*
G04 Layer:  BOARD GEOMETRY/DESIGN_OUTLINE*
G04 *
G04 Offset:    (0.0000 0.0000)*
G04 Mirror:    No*
G04 Mode:      Positive*
G04 Rotation:  0*
G04 FullContactRelief:  No*
G04 UndefLineWidth:     0.1000*
G04 ================== end FILE IDENTIFICATION RECORD ====================*
%FSLAX25Y25*MOMM*%
%IR0*IPPOS*OFA0.00000B0.00000*MIA0B0*SFA1.00000B1.00000*%
%ADD29R,.91X1.22*%
%ADD31R,1.55X.6*%
%ADD16C,.6*%
%ADD27R,1.505X.802*%
%ADD17R,2.4X2.*%
%ADD15R,2.1X1.4*%
%ADD24O,1.8X3.*%
%ADD25R,4.2X2.2*%
%ADD26R,2.2X4.2*%
%ADD12R,2.2X1.6*%
%ADD30R,1.8X1.2*%
%ADD23R,1.8X3.*%
%ADD10R,1.6X2.2*%
%ADD22R,1.905X1.02*%
%ADD20R,.5X.7*%
%ADD11C,2.2*%
%ADD19C,1.8*%
%ADD21R,.9X.65*%
%ADD14C,2.45*%
%ADD28R,.65X.9*%
%ADD13R,2.4X2.4*%
%ADD18R,1.8X1.8*%
%ADD32C,.1*%
G75*
%LPD*%
G75*
G54D10*
X17390000Y19200000D03*
X17990000D03*
G54D11*
X16940000D03*
G54D20*
X20485000Y19055000D03*
Y19145000D03*
G54D21*
Y18912500D03*
Y18767500D03*
X25735000Y20167500D03*
Y20312500D03*
X25970000Y20242500D03*
Y20387500D03*
G54D30*
X26520000Y20620000D03*
Y20060000D03*
G54D12*
X17690000Y18730000D03*
G54D13*
X18520000Y17950000D03*
G54D22*
X21277250Y17831000D03*
Y18339000D03*
Y18847000D03*
Y19355000D03*
Y19863000D03*
Y20371000D03*
Y20879000D03*
Y21387000D03*
Y21895000D03*
Y22403000D03*
X21632750Y17577000D03*
Y18085000D03*
Y18593000D03*
Y19101000D03*
Y19609000D03*
Y20117000D03*
Y20625000D03*
Y21133000D03*
Y21641000D03*
Y22149000D03*
X22766250Y17831000D03*
Y18847000D03*
Y18339000D03*
Y19355000D03*
Y20371000D03*
Y19863000D03*
Y20879000D03*
Y21895000D03*
Y21387000D03*
Y22403000D03*
X23121750Y18085000D03*
Y17577000D03*
Y18593000D03*
Y19609000D03*
Y19101000D03*
Y20117000D03*
Y21133000D03*
Y20625000D03*
Y21641000D03*
Y22149000D03*
G54D31*
X26267500Y20490000D03*
Y20390000D03*
Y20290000D03*
Y20190000D03*
G54D32*
G01X16540000Y24350000D02*
Y17450000D01*
X27090000D01*
Y24350000D01*
X16540000D01*
G54D14*
X18990000Y17950000D03*
X19460000D03*
G54D23*
X24090000Y19100000D03*
Y22700000D03*
G54D24*
X24340000Y20590000D03*
X23840000Y21210000D03*
G54D15*
X18535000Y18725000D03*
Y19725000D03*
Y19175000D03*
Y20175000D03*
Y20725000D03*
Y21175000D03*
X19445000Y18725000D03*
Y19725000D03*
Y19175000D03*
Y20175000D03*
Y20725000D03*
Y21175000D03*
G54D25*
X24955000Y19615000D03*
X25685000D03*
G54D16*
X18380000Y19175000D03*
Y20175000D03*
X18375000Y21175000D03*
X19605000Y19175000D03*
X19615000Y20175000D03*
X19600000Y21175000D03*
X20375000Y19145000D03*
X21808000Y17577000D03*
X22615000Y22403000D03*
X25115000Y17980000D03*
X24815000Y19440000D03*
X24820000Y19795000D03*
X25500000Y17980000D03*
X26020000Y18764500D03*
X26051500Y19496500D03*
X26520000Y19940000D03*
X26115000Y20490000D03*
X26520000Y20730000D03*
X26785000Y19018500D03*
Y18764500D03*
Y18891500D03*
Y19145500D03*
G54D26*
X25320000Y18100000D03*
Y18830000D03*
G54D17*
X18915000Y21720000D03*
Y22580000D03*
Y23220000D03*
Y24080000D03*
G54D18*
X19615000Y21900000D03*
Y23400000D03*
G54D27*
X26654750Y19018500D03*
Y18891500D03*
Y18764500D03*
X26155250D03*
Y18891500D03*
Y19018500D03*
X26654750Y19145500D03*
X26155250D03*
G54D28*
X26522500Y19630000D03*
X26377500D03*
G54D19*
X19615000Y22150000D03*
Y22400000D03*
Y23650000D03*
Y23900000D03*
G54D29*
X26378500Y19365000D03*
X26051500D03*
M02*
