G04 ================== begin FILE IDENTIFICATION RECORD ==================*
G04 Layout Name:  C:/temp/MultiFx/allegro/MULTIFX.brd*
G04 Film Name:    TOP*
G04 File Format:  Gerber RS274X*
G04 File Origin:  Cadence Allegro 17.2-S078*
G04 Origin Date:  Thu Feb 24 11:19:01 2022*
G04 *
G04 Layer:  BOARD GEOMETRY/DESIGN_OUTLINE*
G04 Layer:  ETCH/TOP*
G04 Layer:  PIN/TOP*
G04 Layer:  VIA CLASS/TOP*
G04 *
G04 Offset:    (0.0000 0.0000)*
G04 Mirror:    No*
G04 Mode:      Positive*
G04 Rotation:  0*
G04 FullContactRelief:  No*
G04 UndefLineWidth:     0.1000*
G04 ================== end FILE IDENTIFICATION RECORD ====================*
%FSLAX25Y25*MOMM*%
%IR0*IPPOS*OFA0.00000B0.00000*MIA0B0*SFA1.00000B1.00000*%
%ADD30R,.91X1.22*%
%ADD32R,1.55X.6*%
%ADD17C,.6*%
%ADD28R,1.505X.802*%
%ADD18R,2.4X2.*%
%ADD16R,2.1X1.4*%
%ADD25O,1.8X3.*%
%ADD26R,4.2X2.2*%
%ADD27R,2.2X4.2*%
%ADD13R,2.2X1.6*%
%ADD31R,1.8X1.2*%
%ADD24R,1.8X3.*%
%ADD11R,1.6X2.2*%
%ADD23R,1.905X1.02*%
%ADD21R,.5X.7*%
%ADD12C,2.2*%
%ADD10C,5.*%
%ADD20C,1.8*%
%ADD22R,.9X.65*%
%ADD15C,2.45*%
%ADD29R,.65X.9*%
%ADD19R,1.8X1.8*%
%ADD14R,2.45X2.45*%
%ADD33C,.5*%
%ADD34C,.8*%
%ADD35C,1.*%
%ADD36C,.1*%
G75*
%LPD*%
G75*
G54D10*
X17040000Y17950000D03*
Y23830000D03*
X26590000Y17950000D03*
Y23850000D03*
G54D20*
X19615000Y22150000D03*
Y22400000D03*
Y23650000D03*
Y23900000D03*
G54D11*
X17390000Y19200000D03*
X17990000D03*
G54D12*
X16940000D03*
G54D21*
X20485000Y19055000D03*
Y19145000D03*
G54D30*
X26378500Y19365000D03*
X26051500D03*
G54D22*
X20485000Y18912500D03*
Y18767500D03*
X25735000Y20167500D03*
Y20312500D03*
X25970000Y20242500D03*
Y20387500D03*
G54D31*
X26520000Y20620000D03*
Y20060000D03*
G54D13*
X17690000Y18730000D03*
G54D14*
X18520000Y17950000D03*
G54D23*
X21277250Y17831000D03*
Y18339000D03*
Y18847000D03*
Y19355000D03*
Y19863000D03*
Y20371000D03*
Y20879000D03*
Y21387000D03*
Y21895000D03*
Y22403000D03*
X21632750Y17577000D03*
Y18085000D03*
Y18593000D03*
Y19101000D03*
Y19609000D03*
Y20117000D03*
Y20625000D03*
Y21133000D03*
Y21641000D03*
Y22149000D03*
X22766250Y17831000D03*
Y18847000D03*
Y18339000D03*
Y19355000D03*
Y20371000D03*
Y19863000D03*
Y20879000D03*
Y21895000D03*
Y21387000D03*
Y22403000D03*
X23121750Y18085000D03*
Y17577000D03*
Y18593000D03*
Y19609000D03*
Y19101000D03*
Y20117000D03*
Y21133000D03*
Y20625000D03*
Y21641000D03*
Y22149000D03*
G54D32*
X26267500Y20490000D03*
Y20390000D03*
Y20290000D03*
Y20190000D03*
G54D33*
G01X18535000Y18725000D02*
X19445000D01*
G01X18535000Y19725000D02*
X19445000D01*
G01X18535000Y20725000D02*
X19445000D01*
G01Y18725000D02*
X20350000D01*
X20400000Y18775000D01*
Y18816570D01*
X20423430Y18840000D01*
X20546570D01*
X20631570Y18925000D01*
X21066300D01*
X21144300Y18847000D01*
X21277250D01*
G01X19445000Y19725000D02*
X20595000D01*
X21220000Y19100000D01*
X21498800D01*
X21499800Y19101000D01*
X21632750D01*
G01X19445000Y20725000D02*
X19774300D01*
X21144300Y19355000D01*
X21277250D01*
G01X20485000Y19055000D02*
Y18912500D01*
G01Y18767500D02*
X20804500D01*
X21233000Y18339000D01*
X21277250D01*
G01X20485000Y19145000D02*
X20375000D01*
G01X25735000Y20312500D02*
X23347500D01*
X23289000Y20371000D01*
X22766250D01*
G01X25970000Y20387500D02*
X23403500D01*
X23166000Y20625000D01*
X23121750D01*
G01X26522500Y19630000D02*
Y19642500D01*
X26450000Y19715000D01*
X26032700D01*
X25932700Y19615000D01*
X25685000D01*
G01D02*
X25663340Y19636660D01*
Y20108340D01*
X25722500Y20167500D01*
X25735000D01*
G01Y20312500D02*
X25737500Y20315000D01*
X26127300D01*
X26152300Y20290000D01*
X26267500D01*
G01X25735000Y20167500D02*
X25882500D01*
X25957500Y20242500D01*
X25970000D01*
G01X26155250Y19018500D02*
X26303500D01*
X26380000Y19095000D01*
Y19330000D01*
X26378500Y19331500D01*
Y19365000D01*
G01X26522500Y19630000D02*
Y19112500D01*
X26301500Y18891500D01*
X26155250D01*
G01X26377500Y19630000D02*
Y19611000D01*
X26378500Y19610000D01*
Y19365000D01*
G01X26267500Y20390000D02*
X25972500D01*
X25970000Y20387500D01*
G01X26267500Y20190000D02*
X26105200D01*
X26052700Y20242500D01*
X25970000D01*
G54D15*
X18990000Y17950000D03*
X19460000D03*
G54D24*
X24090000Y19100000D03*
Y22700000D03*
G54D34*
G01X18990000Y17950000D02*
X19225000Y17715000D01*
X21117000D01*
X21233000Y17831000D01*
X21277250D01*
G01X19615000Y22150000D02*
X19469140D01*
X19389140Y22070000D01*
Y21800860D01*
X19549000Y21641000D01*
X21632750D01*
G01X19615000Y22400000D02*
X20255780Y21759220D01*
X21365510D01*
X21427500Y21821210D01*
Y21968800D01*
X21277250Y22119050D01*
Y22403000D01*
G01X19625000Y23650000D02*
X19615000D01*
G01X21277250Y21895000D02*
X20835000D01*
X19423770Y23306230D01*
Y23570000D01*
X19503770Y23650000D01*
X19615000D01*
G01Y23900000D02*
X19625000D01*
X21122000Y22403000D01*
X21277250D01*
G01X19614000Y23900000D02*
X19615000D01*
G01X25320000Y18830000D02*
Y18775000D01*
X24490000Y17945000D01*
X21435500D01*
X21321500Y17831000D01*
X21277250D01*
G01X21321490Y22403000D02*
X21277250D01*
G01X23840000Y21210000D02*
Y21270000D01*
X23723000Y21387000D01*
X22766250D01*
G01X24340000Y20590000D02*
Y21815000D01*
X24260000Y21895000D01*
X22766250D01*
G01X26155250Y19145500D02*
X25535500D01*
X25320000Y18930000D01*
Y18830000D01*
G01X26190250Y19145500D02*
X26155250D01*
G54D25*
X24340000Y20590000D03*
X23840000Y21210000D03*
G54D16*
X18535000Y18725000D03*
Y19725000D03*
Y19175000D03*
Y20175000D03*
Y20725000D03*
Y21175000D03*
X19445000Y18725000D03*
Y19725000D03*
Y19175000D03*
Y20175000D03*
Y20725000D03*
Y21175000D03*
G54D35*
G01X17990000Y19200000D02*
Y18480000D01*
X18520000Y17950000D01*
G54D26*
X24955000Y19615000D03*
X25685000D03*
G54D17*
G01X18380000Y19175000D02*
X18535000D01*
G01Y20175000D02*
X18380000D01*
G01X18535000Y21175000D02*
X18375000D01*
G01X19445000Y19175000D02*
X19605000D01*
G01X19445000Y20175000D02*
X19615000D01*
G01X19445000Y21175000D02*
X19600000D01*
G01X21632750Y17577000D02*
X21808000D01*
G01X22766250Y22403000D02*
X22615000D01*
G01X25320000Y18040000D02*
X25260000Y17980000D01*
X25115000D01*
G01X24880000Y19615000D02*
X24955000D01*
G01X24815000Y19440000D02*
Y19550000D01*
X24880000Y19615000D01*
G01X24820000Y19795000D02*
Y19675000D01*
X24880000Y19615000D01*
G01X25320000Y18100000D02*
Y18040000D01*
G01D02*
Y18035000D01*
X25375000Y17980000D01*
X25500000D01*
G01X26654750Y19018500D02*
X26785000D01*
G01X26654750Y18891500D02*
X26785000D01*
G01X26654750Y18764500D02*
X26785000D01*
G01X26155250D02*
X26020000D01*
G01X26051500Y19365000D02*
Y19496500D01*
G01X26654750Y19145500D02*
X26785000D01*
G01X26520000Y20060000D02*
Y19940000D01*
G01X26267500Y20490000D02*
X26115000D01*
G01X26520000Y20620000D02*
Y20730000D01*
X18380000Y19175000D03*
Y20175000D03*
X18375000Y21175000D03*
X19605000Y19175000D03*
X19615000Y20175000D03*
X19600000Y21175000D03*
X20375000Y19145000D03*
X21808000Y17577000D03*
X22615000Y22403000D03*
X25115000Y17980000D03*
X24815000Y19440000D03*
X24820000Y19795000D03*
X25500000Y17980000D03*
X26020000Y18764500D03*
X26051500Y19496500D03*
X26520000Y19940000D03*
X26115000Y20490000D03*
X26520000Y20730000D03*
X26785000Y19018500D03*
Y18764500D03*
Y18891500D03*
Y19145500D03*
G54D36*
G01X16540000Y24350000D02*
Y17450000D01*
X27090000D01*
Y24350000D01*
X16540000D01*
G54D27*
X25320000Y18100000D03*
Y18830000D03*
G54D18*
X18915000Y21720000D03*
Y22580000D03*
Y23220000D03*
Y24080000D03*
G54D19*
X19615000Y21900000D03*
Y23400000D03*
G54D28*
X26654750Y19018500D03*
Y18891500D03*
Y18764500D03*
X26155250D03*
Y18891500D03*
Y19018500D03*
X26654750Y19145500D03*
X26155250D03*
G54D29*
X26522500Y19630000D03*
X26377500D03*
M02*
